<svg xmlns="http://www.w3.org/2000/svg" version="1.1" xmlns:xlink="http://www.w3.org/1999/xlink" xmlns:svgjs="http://svgjs.dev/svgjs" width="1920" height="1080" preserveAspectRatio="none" viewBox="0 0 1920 1080"><g mask="url(&quot;#SvgjsMask1078&quot;)" fill="none"><g mask="url(&quot;#SvgjsMask1079&quot;)"><path d="M1805 545L1795 535L1785 535L1775 535L1765 535M1815 545L1805 535L1795 525L1785 515L1775 515M1885 535L1875 545L1865 545L1855 545L1845 545M1845 535L1835 535L1825 535M1935 545L1925 545L1915 545L1905 545L1895 535L1885 535L1875 535L1865 535L1855 535L1845 535L1835 545L1825 545L1815 545L1805 545L1795 545L1785 545L1775 545L1765 545" stroke="rgba(49, 22, 14, 1)" stroke-width="1.67"></path><path d="M1762.5 545 a2.5 2.5 0 1 0 5 0 a2.5 2.5 0 1 0 -5 0zM1762.5 535 a2.5 2.5 0 1 0 5 0 a2.5 2.5 0 1 0 -5 0zM1772.5 515 a2.5 2.5 0 1 0 5 0 a2.5 2.5 0 1 0 -5 0zM1842.5 545 a2.5 2.5 0 1 0 5 0 a2.5 2.5 0 1 0 -5 0zM1822.5 535 a2.5 2.5 0 1 0 5 0 a2.5 2.5 0 1 0 -5 0z" fill="rgba(49, 22, 14, 1)"></path><path d="M1935 535L1925 535L1915 535L1905 535L1895 525L1885 525L1875 525L1865 525L1855 525" stroke="rgba(49, 22, 14, 1)" stroke-width="1.67"></path><path d="M1852.5 525 a2.5 2.5 0 1 0 5 0 a2.5 2.5 0 1 0 -5 0z" fill="rgba(49, 22, 14, 1)"></path><path d="M1865 555L1855 565L1845 565L1835 565L1825 565M1745 565L1735 565L1725 565L1715 565L1705 565L1695 565L1685 565L1675 565L1665 565M1725 555L1715 545L1705 545L1695 545M1685 555L1675 545L1665 545L1655 545M1785 565L1775 555L1765 555M1775 565L1765 575L1755 575M1895 555L1885 545M1935 555L1925 555L1915 555L1905 555L1895 555L1885 555L1875 555L1865 555L1855 555L1845 555L1835 555L1825 555L1815 555L1805 555L1795 565L1785 565L1775 565L1765 565L1755 565L1745 565L1735 555L1725 555L1715 555L1705 555L1695 555L1685 555L1675 555L1665 555" stroke="rgba(49, 22, 14, 1)" stroke-width="1.67"></path><path d="M1662.5 555 a2.5 2.5 0 1 0 5 0 a2.5 2.5 0 1 0 -5 0zM1822.5 565 a2.5 2.5 0 1 0 5 0 a2.5 2.5 0 1 0 -5 0zM1662.5 565 a2.5 2.5 0 1 0 5 0 a2.5 2.5 0 1 0 -5 0zM1692.5 545 a2.5 2.5 0 1 0 5 0 a2.5 2.5 0 1 0 -5 0zM1652.5 545 a2.5 2.5 0 1 0 5 0 a2.5 2.5 0 1 0 -5 0zM1762.5 555 a2.5 2.5 0 1 0 5 0 a2.5 2.5 0 1 0 -5 0zM1752.5 575 a2.5 2.5 0 1 0 5 0 a2.5 2.5 0 1 0 -5 0zM1882.5 545 a2.5 2.5 0 1 0 5 0 a2.5 2.5 0 1 0 -5 0z" fill="rgba(49, 22, 14, 1)"></path><path d="M1845 515L1835 525L1825 525L1815 525M1855 515L1845 505L1835 505L1825 505L1815 505M1935 525L1925 525L1915 525L1905 525L1895 515L1885 515L1875 515L1865 515L1855 515L1845 515L1835 515" stroke="rgba(49, 22, 14, 1)" stroke-width="1.67"></path><path d="M1832.5 515 a2.5 2.5 0 1 0 5 0 a2.5 2.5 0 1 0 -5 0zM1812.5 525 a2.5 2.5 0 1 0 5 0 a2.5 2.5 0 1 0 -5 0zM1812.5 505 a2.5 2.5 0 1 0 5 0 a2.5 2.5 0 1 0 -5 0z" fill="rgba(49, 22, 14, 1)"></path><path d="M1405 575L1395 565L1385 565L1375 565L1365 555L1355 555L1345 555L1335 555M1455 575L1445 565L1435 565L1425 565L1415 555L1405 555M1045 555L1035 555L1025 555L1015 565L1005 565M1345 565L1335 575L1325 575L1315 575L1305 575M1295 565L1285 555L1275 555L1265 545L1255 545L1245 545L1235 545L1225 545L1215 545L1205 545L1195 545L1185 545L1175 545L1165 545L1155 545L1145 545L1135 545L1125 545L1115 545L1105 545L1095 545L1085 545L1075 545L1065 545M1145 565L1135 565L1125 565L1115 565L1105 575L1095 575L1085 575L1075 575L1065 575L1055 575M1085 555L1075 565L1065 565L1055 565L1045 565M1875 565L1865 565M1375 575L1365 575L1355 575L1345 575M1725 575L1715 585M1505 575L1495 565L1485 565L1475 565M1245 565L1235 575L1225 575L1215 575L1205 585L1195 585L1185 585L1175 585L1165 585L1155 585L1145 585L1135 575L1125 575L1115 575L1105 585L1095 585L1085 585L1075 585L1065 585L1055 585L1045 585L1035 585L1025 585L1015 585L1005 585L995 585L985 585M1175 565L1165 575L1155 575L1145 575M1265 565L1255 555L1245 555L1235 555L1225 555L1215 555L1205 555L1195 555L1185 555L1175 555L1165 555L1155 555L1145 555M1475 575L1465 585M1325 565L1315 555L1305 555L1295 555L1285 545L1275 545L1265 535L1255 535M1815 565L1805 575M1095 555L1085 565M1625 575L1615 565L1605 555L1595 555M1635 575L1625 585L1615 595L1605 595L1595 595L1585 595L1575 595L1565 595L1555 595L1545 595L1535 595L1525 595L1515 595L1505 595L1495 595L1485 595L1475 595M1105 555L1095 565M1255 565L1245 575L1235 585L1225 585L1215 585L1205 595L1195 595L1185 595L1175 595L1165 595M1935 565L1925 565L1915 565L1905 565L1895 565L1885 565L1875 565L1865 575L1855 575L1845 575L1835 575L1825 575L1815 565L1805 565L1795 575L1785 575L1775 585L1765 585L1755 585L1745 575L1735 575L1725 575L1715 575L1705 575L1695 575L1685 575L1675 575L1665 575L1655 575L1645 575L1635 575L1625 575L1615 575L1605 565L1595 565L1585 565L1575 565L1565 565L1555 565L1545 565L1535 565L1525 575L1515 575L1505 575L1495 575L1485 575L1475 575L1465 575L1455 575L1445 575L1435 575L1425 575L1415 575L1405 575L1395 575L1385 575L1375 575L1365 565L1355 565L1345 565L1335 565L1325 565L1315 565L1305 565L1295 565L1285 565L1275 565L1265 565L1255 565L1245 565L1235 565L1225 565L1215 565L1205 565L1195 565L1185 565L1175 565L1165 565L1155 565L1145 565L1135 555L1125 555L1115 555L1105 555L1095 555L1085 555L1075 555L1065 555L1055 555L1045 555L1035 565" stroke="rgba(49, 22, 14, 1)" stroke-width="1.67"></path><path d="M1032.5 565 a2.5 2.5 0 1 0 5 0 a2.5 2.5 0 1 0 -5 0zM1332.5 555 a2.5 2.5 0 1 0 5 0 a2.5 2.5 0 1 0 -5 0zM1402.5 555 a2.5 2.5 0 1 0 5 0 a2.5 2.5 0 1 0 -5 0zM1002.5 565 a2.5 2.5 0 1 0 5 0 a2.5 2.5 0 1 0 -5 0zM1302.5 575 a2.5 2.5 0 1 0 5 0 a2.5 2.5 0 1 0 -5 0zM1062.5 545 a2.5 2.5 0 1 0 5 0 a2.5 2.5 0 1 0 -5 0zM1052.5 575 a2.5 2.5 0 1 0 5 0 a2.5 2.5 0 1 0 -5 0zM1042.5 565 a2.5 2.5 0 1 0 5 0 a2.5 2.5 0 1 0 -5 0zM1862.5 565 a2.5 2.5 0 1 0 5 0 a2.5 2.5 0 1 0 -5 0zM1342.5 575 a2.5 2.5 0 1 0 5 0 a2.5 2.5 0 1 0 -5 0zM1712.5 585 a2.5 2.5 0 1 0 5 0 a2.5 2.5 0 1 0 -5 0zM1472.5 565 a2.5 2.5 0 1 0 5 0 a2.5 2.5 0 1 0 -5 0zM982.5 585 a2.5 2.5 0 1 0 5 0 a2.5 2.5 0 1 0 -5 0zM1142.5 575 a2.5 2.5 0 1 0 5 0 a2.5 2.5 0 1 0 -5 0zM1142.5 555 a2.5 2.5 0 1 0 5 0 a2.5 2.5 0 1 0 -5 0zM1462.5 585 a2.5 2.5 0 1 0 5 0 a2.5 2.5 0 1 0 -5 0zM1252.5 535 a2.5 2.5 0 1 0 5 0 a2.5 2.5 0 1 0 -5 0zM1802.5 575 a2.5 2.5 0 1 0 5 0 a2.5 2.5 0 1 0 -5 0zM1082.5 565 a2.5 2.5 0 1 0 5 0 a2.5 2.5 0 1 0 -5 0zM1592.5 555 a2.5 2.5 0 1 0 5 0 a2.5 2.5 0 1 0 -5 0zM1472.5 595 a2.5 2.5 0 1 0 5 0 a2.5 2.5 0 1 0 -5 0zM1092.5 565 a2.5 2.5 0 1 0 5 0 a2.5 2.5 0 1 0 -5 0zM1162.5 595 a2.5 2.5 0 1 0 5 0 a2.5 2.5 0 1 0 -5 0z" fill="rgba(49, 22, 14, 1)"></path><path d="M1805 495L1795 485L1785 485M1815 495L1805 485M1885 505L1875 505L1865 505L1855 505M1935 515L1925 515L1915 515L1905 515L1895 505L1885 505L1875 495L1865 495L1855 495L1845 495L1835 495L1825 495L1815 495L1805 495L1795 505" stroke="rgba(49, 22, 14, 1)" stroke-width="1.67"></path><path d="M1792.5 505 a2.5 2.5 0 1 0 5 0 a2.5 2.5 0 1 0 -5 0zM1782.5 485 a2.5 2.5 0 1 0 5 0 a2.5 2.5 0 1 0 -5 0zM1802.5 485 a2.5 2.5 0 1 0 5 0 a2.5 2.5 0 1 0 -5 0zM1852.5 505 a2.5 2.5 0 1 0 5 0 a2.5 2.5 0 1 0 -5 0z" fill="rgba(49, 22, 14, 1)"></path><path d="M1705 585L1695 595L1685 595M1655 585L1645 585L1635 585M1735 595L1725 585M1915 575L1905 585L1895 585L1885 585M1745 595L1735 585M1715 595L1705 595M1925 575L1915 585M1935 575L1925 575L1915 575L1905 575L1895 575L1885 575L1875 575L1865 585L1855 585L1845 585L1835 585L1825 585L1815 585L1805 585L1795 585L1785 585L1775 595L1765 595L1755 595L1745 595L1735 595L1725 595L1715 595L1705 585L1695 585L1685 585L1675 585L1665 585L1655 585L1645 595L1635 595L1625 595" stroke="rgba(49, 22, 14, 1)" stroke-width="1.67"></path><path d="M1622.5 595 a2.5 2.5 0 1 0 5 0 a2.5 2.5 0 1 0 -5 0zM1682.5 595 a2.5 2.5 0 1 0 5 0 a2.5 2.5 0 1 0 -5 0zM1632.5 585 a2.5 2.5 0 1 0 5 0 a2.5 2.5 0 1 0 -5 0zM1722.5 585 a2.5 2.5 0 1 0 5 0 a2.5 2.5 0 1 0 -5 0zM1882.5 585 a2.5 2.5 0 1 0 5 0 a2.5 2.5 0 1 0 -5 0zM1732.5 585 a2.5 2.5 0 1 0 5 0 a2.5 2.5 0 1 0 -5 0zM1702.5 595 a2.5 2.5 0 1 0 5 0 a2.5 2.5 0 1 0 -5 0zM1912.5 585 a2.5 2.5 0 1 0 5 0 a2.5 2.5 0 1 0 -5 0z" fill="rgba(49, 22, 14, 1)"></path><path d="M1915 495L1905 505M1905 495L1895 485L1885 485M1935 505L1925 505L1915 495L1905 495L1895 495L1885 495L1875 485" stroke="rgba(49, 22, 14, 1)" stroke-width="1.67"></path><path d="M1872.5 485 a2.5 2.5 0 1 0 5 0 a2.5 2.5 0 1 0 -5 0zM1902.5 505 a2.5 2.5 0 1 0 5 0 a2.5 2.5 0 1 0 -5 0zM1882.5 485 a2.5 2.5 0 1 0 5 0 a2.5 2.5 0 1 0 -5 0z" fill="rgba(49, 22, 14, 1)"></path><path d="M1815 595L1805 605L1795 605L1785 605M1685 605L1675 605L1665 605L1655 605M1505 605L1495 615L1485 615L1475 615L1465 615L1455 615L1445 615L1435 615L1425 615L1415 625L1405 625L1395 625L1385 625M1555 615L1545 605M1465 595L1455 595L1445 595L1435 595L1425 595L1415 595M1535 605L1525 615L1515 615L1505 615L1495 625L1485 625L1475 625L1465 625L1455 625L1445 625L1435 625L1425 625L1415 635L1405 635L1395 635L1385 635L1375 635L1365 635L1355 635L1345 635L1335 635L1325 635L1315 635L1305 635M1625 605L1615 615L1605 615L1595 625L1585 625L1575 625M1585 615L1575 605L1565 605L1555 605M1595 615L1585 605M1475 605L1465 605L1455 605L1445 605L1435 605L1425 605L1415 605L1405 605L1395 605L1385 605L1375 605L1365 605L1355 605L1345 605M1545 615L1535 615L1525 625L1515 625L1505 625M1565 615L1555 625L1545 625L1535 625M1935 585L1925 595L1915 595L1905 595L1895 595L1885 595L1875 595L1865 595L1855 595L1845 595L1835 595L1825 595L1815 595L1805 595L1795 595L1785 595L1775 605L1765 605L1755 605L1745 605L1735 605L1725 605L1715 605L1705 605L1695 605L1685 605L1675 595L1665 595L1655 595L1645 605L1635 605L1625 605L1615 605L1605 605L1595 615L1585 615L1575 615L1565 615L1555 615L1545 615L1535 605L1525 605L1515 605L1505 605L1495 605L1485 605L1475 605L1465 595L1455 585L1445 585" stroke="rgba(49, 22, 14, 1)" stroke-width="1.67"></path><path d="M1442.5 585 a2.5 2.5 0 1 0 5 0 a2.5 2.5 0 1 0 -5 0zM1782.5 605 a2.5 2.5 0 1 0 5 0 a2.5 2.5 0 1 0 -5 0zM1652.5 605 a2.5 2.5 0 1 0 5 0 a2.5 2.5 0 1 0 -5 0zM1382.5 625 a2.5 2.5 0 1 0 5 0 a2.5 2.5 0 1 0 -5 0zM1542.5 605 a2.5 2.5 0 1 0 5 0 a2.5 2.5 0 1 0 -5 0zM1412.5 595 a2.5 2.5 0 1 0 5 0 a2.5 2.5 0 1 0 -5 0zM1302.5 635 a2.5 2.5 0 1 0 5 0 a2.5 2.5 0 1 0 -5 0zM1572.5 625 a2.5 2.5 0 1 0 5 0 a2.5 2.5 0 1 0 -5 0zM1552.5 605 a2.5 2.5 0 1 0 5 0 a2.5 2.5 0 1 0 -5 0zM1582.5 605 a2.5 2.5 0 1 0 5 0 a2.5 2.5 0 1 0 -5 0zM1342.5 605 a2.5 2.5 0 1 0 5 0 a2.5 2.5 0 1 0 -5 0zM1502.5 625 a2.5 2.5 0 1 0 5 0 a2.5 2.5 0 1 0 -5 0zM1532.5 625 a2.5 2.5 0 1 0 5 0 a2.5 2.5 0 1 0 -5 0z" fill="rgba(49, 22, 14, 1)"></path><path d="M1505 455L1495 465L1485 465L1475 455L1465 455L1455 455L1445 455L1435 455L1425 465L1415 465M1385 435L1375 445L1365 445L1355 455L1345 455L1335 455L1325 455M1435 435L1425 445L1415 445L1405 445L1395 445L1385 445L1375 455M1465 435L1455 445M1135 425L1125 425L1115 425L1105 425L1095 425L1085 425L1075 425L1065 425L1055 435L1045 435L1035 435L1025 435L1015 425L1005 425L995 425L985 425M1725 465L1715 475L1705 475L1695 475L1685 475L1675 475L1665 485L1655 485L1645 485L1635 485L1625 485L1615 485L1605 485L1595 485L1585 485L1575 485L1565 485L1555 485L1545 485L1535 485L1525 485L1515 485L1505 485M1735 465L1725 475L1715 485L1705 485L1695 485L1685 485L1675 485L1665 495L1655 495L1645 495L1635 495L1625 495L1615 495L1605 495L1595 495M1695 455L1685 465L1675 465L1665 465L1655 465L1645 465L1635 465L1625 465L1615 465L1605 465L1595 465L1585 465L1575 465L1565 465L1555 465L1545 465L1535 465L1525 465M1495 445L1485 455M1165 425L1155 415L1145 415L1135 415M1585 455L1575 445L1565 445L1555 445M1605 455L1595 445L1585 445M1255 425L1245 415L1235 415L1225 415L1215 415L1205 415L1195 415L1185 415L1175 415L1165 415M1635 455L1625 445L1615 445M1275 435L1265 445L1255 445L1245 445M1705 465L1695 465M1325 445L1315 435L1305 425L1295 425L1285 425L1275 425L1265 425L1255 415L1245 405L1235 405M1295 435L1285 445L1275 445L1265 455L1255 455M1655 455L1645 445L1635 445M1805 475L1795 465L1785 465M1935 495L1925 495L1915 485L1905 475L1895 475L1885 475L1875 475L1865 475L1855 475L1845 475L1835 475L1825 475L1815 475L1805 475L1795 475L1785 475L1775 475L1765 475L1755 475L1745 475L1735 465L1725 465L1715 465L1705 465L1695 455L1685 455L1675 455L1665 455L1655 455L1645 455L1635 455L1625 455L1615 455L1605 455L1595 455L1585 455L1575 455L1565 455L1555 455L1545 455L1535 455L1525 455L1515 455L1505 455L1495 445L1485 445L1475 435L1465 435L1455 435L1445 435L1435 435L1425 435L1415 435L1405 435L1395 435L1385 435L1375 435L1365 435L1355 445L1345 445L1335 445L1325 445L1315 445L1305 445L1295 435L1285 435L1275 435L1265 435L1255 425L1245 425L1235 425L1225 425L1215 425L1205 425L1195 425L1185 425L1175 425L1165 425L1155 425L1145 425L1135 425L1125 415L1115 415" stroke="rgba(49, 22, 14, 1)" stroke-width="1.67"></path><path d="M1112.5 415 a2.5 2.5 0 1 0 5 0 a2.5 2.5 0 1 0 -5 0zM1412.5 465 a2.5 2.5 0 1 0 5 0 a2.5 2.5 0 1 0 -5 0zM1322.5 455 a2.5 2.5 0 1 0 5 0 a2.5 2.5 0 1 0 -5 0zM1372.5 455 a2.5 2.5 0 1 0 5 0 a2.5 2.5 0 1 0 -5 0zM1452.5 445 a2.5 2.5 0 1 0 5 0 a2.5 2.5 0 1 0 -5 0zM982.5 425 a2.5 2.5 0 1 0 5 0 a2.5 2.5 0 1 0 -5 0zM1502.5 485 a2.5 2.5 0 1 0 5 0 a2.5 2.5 0 1 0 -5 0zM1592.5 495 a2.5 2.5 0 1 0 5 0 a2.5 2.5 0 1 0 -5 0zM1522.5 465 a2.5 2.5 0 1 0 5 0 a2.5 2.5 0 1 0 -5 0zM1482.5 455 a2.5 2.5 0 1 0 5 0 a2.5 2.5 0 1 0 -5 0zM1132.5 415 a2.5 2.5 0 1 0 5 0 a2.5 2.5 0 1 0 -5 0zM1552.5 445 a2.5 2.5 0 1 0 5 0 a2.5 2.5 0 1 0 -5 0zM1582.5 445 a2.5 2.5 0 1 0 5 0 a2.5 2.5 0 1 0 -5 0zM1162.5 415 a2.5 2.5 0 1 0 5 0 a2.5 2.5 0 1 0 -5 0zM1612.5 445 a2.5 2.5 0 1 0 5 0 a2.5 2.5 0 1 0 -5 0zM1242.5 445 a2.5 2.5 0 1 0 5 0 a2.5 2.5 0 1 0 -5 0zM1692.5 465 a2.5 2.5 0 1 0 5 0 a2.5 2.5 0 1 0 -5 0zM1232.5 405 a2.5 2.5 0 1 0 5 0 a2.5 2.5 0 1 0 -5 0zM1252.5 455 a2.5 2.5 0 1 0 5 0 a2.5 2.5 0 1 0 -5 0zM1632.5 445 a2.5 2.5 0 1 0 5 0 a2.5 2.5 0 1 0 -5 0zM1782.5 465 a2.5 2.5 0 1 0 5 0 a2.5 2.5 0 1 0 -5 0z" fill="rgba(49, 22, 14, 1)"></path><path d="M1545 435L1535 445L1525 445L1515 445L1505 445M1725 455L1715 445L1705 445M1665 445L1655 445M1875 465L1865 455M1365 425L1355 425L1345 425L1335 435L1325 435L1315 425M1495 435L1485 425M1515 435L1505 425L1495 425M1885 465L1875 455M1815 455L1805 445L1795 445L1785 445L1775 445L1765 455L1755 455L1745 455L1735 445L1725 445M1295 415L1285 415L1275 415L1265 415L1255 405M1425 425L1415 415M1405 425L1395 415L1385 415M1855 465L1845 455M1785 455L1775 455M1835 465L1825 465L1815 465L1805 465M1335 415L1325 425M1935 485L1925 485L1915 475L1905 465L1895 465L1885 465L1875 465L1865 465L1855 465L1845 465L1835 465L1825 455L1815 455L1805 455L1795 455L1785 455L1775 465L1765 465L1755 465L1745 465L1735 455L1725 455L1715 455L1705 455L1695 445L1685 445L1675 445L1665 445L1655 435L1645 435L1635 435L1625 435L1615 435L1605 435L1595 435L1585 435L1575 435L1565 435L1555 435L1545 435L1535 435L1525 435L1515 435L1505 435L1495 435L1485 435L1475 425L1465 425L1455 425L1445 425L1435 425L1425 425L1415 425L1405 425L1395 425L1385 425L1375 425L1365 425L1355 415L1345 415L1335 415L1325 415L1315 415L1305 415L1295 415L1285 405L1275 405" stroke="rgba(49, 22, 14, 1)" stroke-width="1.67"></path><path d="M1272.5 405 a2.5 2.5 0 1 0 5 0 a2.5 2.5 0 1 0 -5 0zM1502.5 445 a2.5 2.5 0 1 0 5 0 a2.5 2.5 0 1 0 -5 0zM1702.5 445 a2.5 2.5 0 1 0 5 0 a2.5 2.5 0 1 0 -5 0zM1652.5 445 a2.5 2.5 0 1 0 5 0 a2.5 2.5 0 1 0 -5 0zM1862.5 455 a2.5 2.5 0 1 0 5 0 a2.5 2.5 0 1 0 -5 0zM1312.5 425 a2.5 2.5 0 1 0 5 0 a2.5 2.5 0 1 0 -5 0zM1482.5 425 a2.5 2.5 0 1 0 5 0 a2.5 2.5 0 1 0 -5 0zM1492.5 425 a2.5 2.5 0 1 0 5 0 a2.5 2.5 0 1 0 -5 0zM1872.5 455 a2.5 2.5 0 1 0 5 0 a2.5 2.5 0 1 0 -5 0zM1722.5 445 a2.5 2.5 0 1 0 5 0 a2.5 2.5 0 1 0 -5 0zM1252.5 405 a2.5 2.5 0 1 0 5 0 a2.5 2.5 0 1 0 -5 0zM1412.5 415 a2.5 2.5 0 1 0 5 0 a2.5 2.5 0 1 0 -5 0zM1382.5 415 a2.5 2.5 0 1 0 5 0 a2.5 2.5 0 1 0 -5 0zM1842.5 455 a2.5 2.5 0 1 0 5 0 a2.5 2.5 0 1 0 -5 0zM1772.5 455 a2.5 2.5 0 1 0 5 0 a2.5 2.5 0 1 0 -5 0zM1802.5 465 a2.5 2.5 0 1 0 5 0 a2.5 2.5 0 1 0 -5 0zM1322.5 425 a2.5 2.5 0 1 0 5 0 a2.5 2.5 0 1 0 -5 0z" fill="rgba(49, 22, 14, 1)"></path><path d="M1295 655L1285 645L1275 645M1325 655L1315 645L1305 645L1295 645L1285 635L1275 635L1265 635M1285 655L1275 665M1705 615L1695 625L1685 625L1675 625L1665 625L1655 635L1645 635L1635 635L1625 635L1615 635L1605 645M1225 645L1215 655L1205 655L1195 655L1185 655L1175 655M1435 645L1425 635M1645 625L1635 615L1625 615M1825 615L1815 605M1345 655L1335 665L1325 665L1315 665L1305 665L1295 665L1285 665M1335 655L1325 645M1835 605L1825 605M1375 655L1365 645L1355 645L1345 645L1335 645M1235 645L1225 635L1215 635L1205 625L1195 625L1185 625L1175 625L1165 625L1155 625L1145 625L1135 625L1125 635L1115 635L1105 635L1095 635M1365 655L1355 665L1345 665M1615 625L1605 625M1765 615L1755 625M1655 615L1645 615M1385 655L1375 645M1935 605L1925 605L1915 605L1905 605L1895 605L1885 605L1875 605L1865 605L1855 605L1845 605L1835 605L1825 615L1815 615L1805 615L1795 615L1785 615L1775 615L1765 615L1755 615L1745 615L1735 615L1725 615L1715 615L1705 615L1695 615L1685 615L1675 615L1665 615L1655 615L1645 625L1635 625L1625 625L1615 625L1605 635L1595 635L1585 635L1575 635L1565 635L1555 635L1545 635L1535 635L1525 635L1515 635L1505 635L1495 635L1485 635L1475 635L1465 635L1455 635L1445 635L1435 645L1425 645L1415 645L1405 645L1395 645L1385 655L1375 655L1365 655L1355 655L1345 655L1335 655L1325 655L1315 655L1305 655L1295 655L1285 655L1275 655L1265 655L1255 655L1245 645L1235 645L1225 645L1215 645" stroke="rgba(49, 22, 14, 1)" stroke-width="1.67"></path><path d="M1212.5 645 a2.5 2.5 0 1 0 5 0 a2.5 2.5 0 1 0 -5 0zM1272.5 645 a2.5 2.5 0 1 0 5 0 a2.5 2.5 0 1 0 -5 0zM1262.5 635 a2.5 2.5 0 1 0 5 0 a2.5 2.5 0 1 0 -5 0zM1272.5 665 a2.5 2.5 0 1 0 5 0 a2.5 2.5 0 1 0 -5 0zM1602.5 645 a2.5 2.5 0 1 0 5 0 a2.5 2.5 0 1 0 -5 0zM1172.5 655 a2.5 2.5 0 1 0 5 0 a2.5 2.5 0 1 0 -5 0zM1422.5 635 a2.5 2.5 0 1 0 5 0 a2.5 2.5 0 1 0 -5 0zM1622.5 615 a2.5 2.5 0 1 0 5 0 a2.5 2.5 0 1 0 -5 0zM1812.5 605 a2.5 2.5 0 1 0 5 0 a2.5 2.5 0 1 0 -5 0zM1282.5 665 a2.5 2.5 0 1 0 5 0 a2.5 2.5 0 1 0 -5 0zM1322.5 645 a2.5 2.5 0 1 0 5 0 a2.5 2.5 0 1 0 -5 0zM1822.5 605 a2.5 2.5 0 1 0 5 0 a2.5 2.5 0 1 0 -5 0zM1332.5 645 a2.5 2.5 0 1 0 5 0 a2.5 2.5 0 1 0 -5 0zM1092.5 635 a2.5 2.5 0 1 0 5 0 a2.5 2.5 0 1 0 -5 0zM1342.5 665 a2.5 2.5 0 1 0 5 0 a2.5 2.5 0 1 0 -5 0zM1602.5 625 a2.5 2.5 0 1 0 5 0 a2.5 2.5 0 1 0 -5 0zM1752.5 625 a2.5 2.5 0 1 0 5 0 a2.5 2.5 0 1 0 -5 0zM1642.5 615 a2.5 2.5 0 1 0 5 0 a2.5 2.5 0 1 0 -5 0zM1372.5 645 a2.5 2.5 0 1 0 5 0 a2.5 2.5 0 1 0 -5 0z" fill="rgba(49, 22, 14, 1)"></path><path d="M1845 445L1835 445L1825 445L1815 445M1905 455L1895 455L1885 455M1935 475L1925 475L1915 465L1905 455L1895 445L1885 445L1875 445L1865 445L1855 445L1845 445L1835 455" stroke="rgba(49, 22, 14, 1)" stroke-width="1.67"></path><path d="M1832.5 455 a2.5 2.5 0 1 0 5 0 a2.5 2.5 0 1 0 -5 0zM1812.5 445 a2.5 2.5 0 1 0 5 0 a2.5 2.5 0 1 0 -5 0zM1882.5 455 a2.5 2.5 0 1 0 5 0 a2.5 2.5 0 1 0 -5 0z" fill="rgba(49, 22, 14, 1)"></path><path d="M1915 615L1905 625M1885 615L1875 625L1865 625M1935 615L1925 615L1915 615L1905 615L1895 615L1885 615L1875 615L1865 615L1855 615L1845 615L1835 615L1825 625L1815 625L1805 625L1795 625L1785 625L1775 625" stroke="rgba(49, 22, 14, 1)" stroke-width="1.67"></path><path d="M1772.5 625 a2.5 2.5 0 1 0 5 0 a2.5 2.5 0 1 0 -5 0zM1902.5 625 a2.5 2.5 0 1 0 5 0 a2.5 2.5 0 1 0 -5 0zM1862.5 625 a2.5 2.5 0 1 0 5 0 a2.5 2.5 0 1 0 -5 0z" fill="rgba(49, 22, 14, 1)"></path><path d="M1155 405L1145 395L1135 395L1125 395L1115 395L1105 395L1095 385L1085 385L1075 385M1635 425L1625 415L1615 415L1605 415L1595 415L1585 415L1575 415L1565 415L1555 415L1545 415L1535 415L1525 415L1515 405M1455 415L1445 405M1275 395L1265 385L1255 385L1245 385L1235 385L1225 385L1215 385L1205 385L1195 395L1185 395L1175 395L1165 395L1155 395L1145 385L1135 385M1525 425L1515 425M1485 415L1475 405L1465 405M1705 435L1695 425M1285 395L1275 385L1265 375L1255 375L1245 365L1235 365L1225 375L1215 375L1205 375L1195 375L1185 375L1175 375L1165 365L1155 365M1435 415L1425 415M1755 435L1745 445M1315 405L1305 395L1295 395L1285 385L1275 375L1265 365L1255 365M1225 405L1215 395L1205 395M1405 405L1395 395L1385 395L1375 395L1365 395L1355 395L1345 395L1335 395L1325 395L1315 395L1305 385L1295 385L1285 375M1765 435L1755 445M1235 395L1225 395M1385 405L1375 405L1365 405M1645 425L1635 415L1625 405L1615 405L1605 405L1595 405M1415 405L1405 395L1395 385M1675 435L1665 425L1655 415L1645 415L1635 405M1495 415L1485 405M1685 435L1675 425L1665 415L1655 405L1645 405M1935 465L1925 465L1915 455L1905 445L1895 435L1885 435L1875 435L1865 435L1855 435L1845 435L1835 435L1825 435L1815 435L1805 435L1795 435L1785 435L1775 435L1765 435L1755 435L1745 435L1735 435L1725 435L1715 435L1705 435L1695 435L1685 435L1675 435L1665 435L1655 425L1645 425L1635 425L1625 425L1615 425L1605 425L1595 425L1585 425L1575 425L1565 425L1555 425L1545 425L1535 425L1525 425L1515 415L1505 415L1495 415L1485 415L1475 415L1465 415L1455 415L1445 415L1435 415L1425 405L1415 405L1405 405L1395 405L1385 405L1375 415L1365 415L1355 405L1345 405L1335 405L1325 405L1315 405L1305 405L1295 405L1285 395L1275 395L1265 395L1255 395L1245 395L1235 395L1225 405L1215 405L1205 405L1195 405L1185 405L1175 405L1165 405L1155 405L1145 405L1135 405L1125 405L1115 405L1105 405L1095 405" stroke="rgba(49, 22, 14, 1)" stroke-width="1.67"></path><path d="M1092.5 405 a2.5 2.5 0 1 0 5 0 a2.5 2.5 0 1 0 -5 0zM1072.5 385 a2.5 2.5 0 1 0 5 0 a2.5 2.5 0 1 0 -5 0zM1512.5 405 a2.5 2.5 0 1 0 5 0 a2.5 2.5 0 1 0 -5 0zM1442.5 405 a2.5 2.5 0 1 0 5 0 a2.5 2.5 0 1 0 -5 0zM1132.5 385 a2.5 2.5 0 1 0 5 0 a2.5 2.5 0 1 0 -5 0zM1512.5 425 a2.5 2.5 0 1 0 5 0 a2.5 2.5 0 1 0 -5 0zM1462.5 405 a2.5 2.5 0 1 0 5 0 a2.5 2.5 0 1 0 -5 0zM1692.5 425 a2.5 2.5 0 1 0 5 0 a2.5 2.5 0 1 0 -5 0zM1152.5 365 a2.5 2.5 0 1 0 5 0 a2.5 2.5 0 1 0 -5 0zM1422.5 415 a2.5 2.5 0 1 0 5 0 a2.5 2.5 0 1 0 -5 0zM1742.5 445 a2.5 2.5 0 1 0 5 0 a2.5 2.5 0 1 0 -5 0zM1252.5 365 a2.5 2.5 0 1 0 5 0 a2.5 2.5 0 1 0 -5 0zM1202.5 395 a2.5 2.5 0 1 0 5 0 a2.5 2.5 0 1 0 -5 0zM1282.5 375 a2.5 2.5 0 1 0 5 0 a2.5 2.5 0 1 0 -5 0zM1752.5 445 a2.5 2.5 0 1 0 5 0 a2.5 2.5 0 1 0 -5 0zM1222.5 395 a2.5 2.5 0 1 0 5 0 a2.5 2.5 0 1 0 -5 0zM1362.5 405 a2.5 2.5 0 1 0 5 0 a2.5 2.5 0 1 0 -5 0zM1592.5 405 a2.5 2.5 0 1 0 5 0 a2.5 2.5 0 1 0 -5 0zM1392.5 385 a2.5 2.5 0 1 0 5 0 a2.5 2.5 0 1 0 -5 0zM1632.5 405 a2.5 2.5 0 1 0 5 0 a2.5 2.5 0 1 0 -5 0zM1482.5 405 a2.5 2.5 0 1 0 5 0 a2.5 2.5 0 1 0 -5 0zM1642.5 405 a2.5 2.5 0 1 0 5 0 a2.5 2.5 0 1 0 -5 0z" fill="rgba(49, 22, 14, 1)"></path><path d="M1795 635L1785 645M1825 635L1815 645M1695 635L1685 645L1675 645L1665 645L1655 645L1645 645M1705 635L1695 645L1685 655L1675 655L1665 655M1805 635L1795 645L1785 655L1775 655M1735 625L1725 635L1715 635L1705 645L1695 655M1935 625L1925 625L1915 635L1905 635L1895 645L1885 645L1875 635L1865 635L1855 635L1845 625L1835 625L1825 635L1815 635L1805 635L1795 635L1785 635L1775 635L1765 635L1755 635L1745 625L1735 625L1725 625L1715 625L1705 635L1695 635L1685 635L1675 635" stroke="rgba(49, 22, 14, 1)" stroke-width="1.67"></path><path d="M1672.5 635 a2.5 2.5 0 1 0 5 0 a2.5 2.5 0 1 0 -5 0zM1782.5 645 a2.5 2.5 0 1 0 5 0 a2.5 2.5 0 1 0 -5 0zM1812.5 645 a2.5 2.5 0 1 0 5 0 a2.5 2.5 0 1 0 -5 0zM1642.5 645 a2.5 2.5 0 1 0 5 0 a2.5 2.5 0 1 0 -5 0zM1662.5 655 a2.5 2.5 0 1 0 5 0 a2.5 2.5 0 1 0 -5 0zM1772.5 655 a2.5 2.5 0 1 0 5 0 a2.5 2.5 0 1 0 -5 0zM1692.5 655 a2.5 2.5 0 1 0 5 0 a2.5 2.5 0 1 0 -5 0z" fill="rgba(49, 22, 14, 1)"></path><path d="M1935 455L1925 455L1915 445L1905 435L1895 425L1885 425L1875 425L1865 425L1855 425L1845 425L1835 425L1825 425L1815 425L1805 425L1795 425L1785 425L1775 425L1765 425L1755 425L1745 425L1735 425L1725 425L1715 425" stroke="rgba(49, 22, 14, 1)" stroke-width="1.67"></path><path d="M1712.5 425 a2.5 2.5 0 1 0 5 0 a2.5 2.5 0 1 0 -5 0z" fill="rgba(49, 22, 14, 1)"></path><path d="M1435 655L1425 665L1415 665L1405 665L1395 675L1385 675L1375 685L1365 685L1355 685L1345 685L1335 685L1325 685L1315 685L1305 685L1295 685M1465 645L1455 655L1445 655L1435 665L1425 675L1415 675L1405 675L1395 685L1385 685L1375 695L1365 695L1355 695L1345 695L1335 695M1595 645L1585 655L1575 655L1565 655L1555 655L1545 655L1535 655L1525 655L1515 655L1505 655L1495 655L1485 655L1475 655L1465 655M1855 665L1845 655L1835 655L1825 645M1785 665L1775 675L1765 675L1755 675M1685 665L1675 675L1665 675L1655 685L1645 685L1635 685M1615 655L1605 665L1595 665L1585 665L1575 665L1565 665L1555 665L1545 665L1535 665L1525 665L1515 665L1505 665L1495 665L1485 665L1475 665L1465 665L1455 665M1375 675L1365 665M1815 665L1805 675L1795 675L1785 675L1775 685L1765 685L1755 685L1745 685L1735 685L1725 685L1715 685L1705 685M1655 655L1645 665L1635 665L1625 665L1615 665L1605 675L1595 675M1265 665L1255 675L1245 675L1235 675L1225 675L1215 675L1205 675L1195 675M1405 655L1395 655M1715 675L1705 665L1695 665M1895 655L1885 655L1875 655L1865 655L1855 655L1845 645L1835 645M1625 655L1615 645M1285 675L1275 685L1265 685L1255 685L1245 685L1235 685L1225 685M1255 665L1245 665L1235 665L1225 665L1215 665L1205 665L1195 665M1935 635L1925 635L1915 645L1905 645L1895 655L1885 665L1875 665L1865 665L1855 665L1845 665L1835 665L1825 665L1815 665L1805 665L1795 665L1785 665L1775 665L1765 665L1755 665L1745 665L1735 665L1725 665L1715 675L1705 675L1695 675L1685 665L1675 665L1665 665L1655 655L1645 655L1635 655L1625 655L1615 655L1605 655L1595 645L1585 645L1575 645L1565 645L1555 645L1545 645L1535 645L1525 645L1515 645L1505 645L1495 645L1485 645L1475 645L1465 645L1455 645L1445 645L1435 655L1425 655L1415 655L1405 655L1395 665L1385 665L1375 675L1365 675L1355 675L1345 675L1335 675L1325 675L1315 675L1305 675L1295 675L1285 675L1275 675L1265 665L1255 665L1245 655" stroke="rgba(49, 22, 14, 1)" stroke-width="1.67"></path><path d="M1242.5 655 a2.5 2.5 0 1 0 5 0 a2.5 2.5 0 1 0 -5 0zM1292.5 685 a2.5 2.5 0 1 0 5 0 a2.5 2.5 0 1 0 -5 0zM1332.5 695 a2.5 2.5 0 1 0 5 0 a2.5 2.5 0 1 0 -5 0zM1462.5 655 a2.5 2.5 0 1 0 5 0 a2.5 2.5 0 1 0 -5 0zM1822.5 645 a2.5 2.5 0 1 0 5 0 a2.5 2.5 0 1 0 -5 0zM1752.5 675 a2.5 2.5 0 1 0 5 0 a2.5 2.5 0 1 0 -5 0zM1632.5 685 a2.5 2.5 0 1 0 5 0 a2.5 2.5 0 1 0 -5 0zM1452.5 665 a2.5 2.5 0 1 0 5 0 a2.5 2.5 0 1 0 -5 0zM1362.5 665 a2.5 2.5 0 1 0 5 0 a2.5 2.5 0 1 0 -5 0zM1702.5 685 a2.5 2.5 0 1 0 5 0 a2.5 2.5 0 1 0 -5 0zM1592.5 675 a2.5 2.5 0 1 0 5 0 a2.5 2.5 0 1 0 -5 0zM1192.5 675 a2.5 2.5 0 1 0 5 0 a2.5 2.5 0 1 0 -5 0zM1392.5 655 a2.5 2.5 0 1 0 5 0 a2.5 2.5 0 1 0 -5 0zM1692.5 665 a2.5 2.5 0 1 0 5 0 a2.5 2.5 0 1 0 -5 0zM1832.5 645 a2.5 2.5 0 1 0 5 0 a2.5 2.5 0 1 0 -5 0zM1612.5 645 a2.5 2.5 0 1 0 5 0 a2.5 2.5 0 1 0 -5 0zM1222.5 685 a2.5 2.5 0 1 0 5 0 a2.5 2.5 0 1 0 -5 0zM1192.5 665 a2.5 2.5 0 1 0 5 0 a2.5 2.5 0 1 0 -5 0z" fill="rgba(49, 22, 14, 1)"></path><path d="M1805 415L1795 405M1545 395L1535 405L1525 405M1685 395L1675 405L1665 405M1435 395L1425 385L1415 385L1405 385M1695 395L1685 405M1725 415L1715 415L1705 415L1695 415L1685 415M1575 395L1565 405L1555 405L1545 405M1885 415L1875 405M1585 395L1575 405M1815 415L1805 405M1715 405L1705 405L1695 405M1935 445L1925 445L1915 435L1905 425L1895 415L1885 415L1875 415L1865 415L1855 415L1845 415L1835 415L1825 415L1815 415L1805 415L1795 415L1785 415L1775 415L1765 415L1755 415L1745 415L1735 415L1725 415L1715 405L1705 395L1695 395L1685 395L1675 395L1665 395L1655 395L1645 395L1635 395L1625 395L1615 395L1605 395L1595 395L1585 395L1575 395L1565 395L1555 395L1545 395L1535 395L1525 395L1515 395L1505 395L1495 395L1485 395L1475 395L1465 395L1455 395L1445 395L1435 395L1425 395" stroke="rgba(49, 22, 14, 1)" stroke-width="1.67"></path><path d="M1422.5 395 a2.5 2.5 0 1 0 5 0 a2.5 2.5 0 1 0 -5 0zM1792.5 405 a2.5 2.5 0 1 0 5 0 a2.5 2.5 0 1 0 -5 0zM1522.5 405 a2.5 2.5 0 1 0 5 0 a2.5 2.5 0 1 0 -5 0zM1662.5 405 a2.5 2.5 0 1 0 5 0 a2.5 2.5 0 1 0 -5 0zM1402.5 385 a2.5 2.5 0 1 0 5 0 a2.5 2.5 0 1 0 -5 0zM1682.5 405 a2.5 2.5 0 1 0 5 0 a2.5 2.5 0 1 0 -5 0zM1682.5 415 a2.5 2.5 0 1 0 5 0 a2.5 2.5 0 1 0 -5 0zM1542.5 405 a2.5 2.5 0 1 0 5 0 a2.5 2.5 0 1 0 -5 0zM1872.5 405 a2.5 2.5 0 1 0 5 0 a2.5 2.5 0 1 0 -5 0zM1572.5 405 a2.5 2.5 0 1 0 5 0 a2.5 2.5 0 1 0 -5 0zM1802.5 405 a2.5 2.5 0 1 0 5 0 a2.5 2.5 0 1 0 -5 0zM1692.5 405 a2.5 2.5 0 1 0 5 0 a2.5 2.5 0 1 0 -5 0z" fill="rgba(49, 22, 14, 1)"></path><path d="M1935 645L1925 645L1915 655L1905 655L1895 665L1885 675L1875 675L1865 675" stroke="rgba(49, 22, 14, 1)" stroke-width="1.67"></path><path d="M1862.5 675 a2.5 2.5 0 1 0 5 0 a2.5 2.5 0 1 0 -5 0z" fill="rgba(49, 22, 14, 1)"></path><path d="M1605 385L1595 375L1585 375L1575 365L1565 355L1555 355L1545 355L1535 355L1525 355L1515 355L1505 355L1495 355L1485 345L1475 345L1465 345L1455 345L1445 345L1435 345L1425 345L1415 355L1405 355L1395 355L1385 365L1375 365L1365 365M1685 385L1675 375L1665 375L1655 375L1645 375L1635 375M1225 365L1215 355L1205 355L1195 355L1185 355L1175 345L1165 345L1155 345L1145 345L1135 345L1125 345L1115 345L1105 345L1095 355L1085 355L1075 355L1065 355L1055 355M1355 375L1345 385L1335 385L1325 385L1315 385M1335 375L1325 365L1315 365L1305 355L1295 355L1285 345L1275 345L1265 335L1255 335L1245 335L1235 335L1225 335M1865 405L1855 395L1845 395L1835 395L1825 395L1815 385L1805 385L1795 375M1705 385L1695 375L1685 375L1675 365L1665 365L1655 365L1645 365M1385 375L1375 385L1365 385L1355 385M1445 385L1435 385M1255 345L1245 355M1825 405L1815 405M1555 385L1545 375L1535 375L1525 375L1515 375L1505 375L1495 375M1265 345L1255 355M1425 375L1415 365L1405 365L1395 365M1275 355L1265 355M1785 405L1775 395L1765 395L1755 395M1475 385L1465 375L1455 375M1625 385L1615 375L1605 375L1595 365L1585 365L1575 355L1565 345L1555 345M1285 365L1275 365M1935 435L1925 435L1915 425L1905 415L1895 405L1885 395L1875 395L1865 405L1855 405L1845 405L1835 405L1825 405L1815 395L1805 395L1795 395L1785 405L1775 405L1765 405L1755 405L1745 405L1735 405L1725 405L1715 395L1705 385L1695 385L1685 385L1675 385L1665 385L1655 385L1645 385L1635 385L1625 385L1615 385L1605 385L1595 385L1585 385L1575 385L1565 385L1555 385L1545 385L1535 385L1525 385L1515 385L1505 385L1495 385L1485 385L1475 385L1465 385L1455 385L1445 385L1435 375L1425 375L1415 375L1405 375L1395 375L1385 375L1375 375L1365 375L1355 375L1345 375L1335 375L1325 375L1315 375L1305 365L1295 365L1285 365L1275 355L1265 345L1255 345L1245 345L1235 355L1225 365L1215 365L1205 365L1195 365L1185 365" stroke="rgba(49, 22, 14, 1)" stroke-width="1.67"></path><path d="M1182.5 365 a2.5 2.5 0 1 0 5 0 a2.5 2.5 0 1 0 -5 0zM1362.5 365 a2.5 2.5 0 1 0 5 0 a2.5 2.5 0 1 0 -5 0zM1632.5 375 a2.5 2.5 0 1 0 5 0 a2.5 2.5 0 1 0 -5 0zM1052.5 355 a2.5 2.5 0 1 0 5 0 a2.5 2.5 0 1 0 -5 0zM1312.5 385 a2.5 2.5 0 1 0 5 0 a2.5 2.5 0 1 0 -5 0zM1222.5 335 a2.5 2.5 0 1 0 5 0 a2.5 2.5 0 1 0 -5 0zM1792.5 375 a2.5 2.5 0 1 0 5 0 a2.5 2.5 0 1 0 -5 0zM1642.5 365 a2.5 2.5 0 1 0 5 0 a2.5 2.5 0 1 0 -5 0zM1352.5 385 a2.5 2.5 0 1 0 5 0 a2.5 2.5 0 1 0 -5 0zM1432.5 385 a2.5 2.5 0 1 0 5 0 a2.5 2.5 0 1 0 -5 0zM1242.5 355 a2.5 2.5 0 1 0 5 0 a2.5 2.5 0 1 0 -5 0zM1812.5 405 a2.5 2.5 0 1 0 5 0 a2.5 2.5 0 1 0 -5 0zM1492.5 375 a2.5 2.5 0 1 0 5 0 a2.5 2.5 0 1 0 -5 0zM1252.5 355 a2.5 2.5 0 1 0 5 0 a2.5 2.5 0 1 0 -5 0zM1392.5 365 a2.5 2.5 0 1 0 5 0 a2.5 2.5 0 1 0 -5 0zM1262.5 355 a2.5 2.5 0 1 0 5 0 a2.5 2.5 0 1 0 -5 0zM1752.5 395 a2.5 2.5 0 1 0 5 0 a2.5 2.5 0 1 0 -5 0zM1452.5 375 a2.5 2.5 0 1 0 5 0 a2.5 2.5 0 1 0 -5 0zM1552.5 345 a2.5 2.5 0 1 0 5 0 a2.5 2.5 0 1 0 -5 0zM1272.5 365 a2.5 2.5 0 1 0 5 0 a2.5 2.5 0 1 0 -5 0z" fill="rgba(49, 22, 14, 1)"></path><path d="M1795 695L1785 685M1675 695L1665 685M1835 685L1825 685L1815 685L1805 685M1605 695L1595 685L1585 685L1575 685L1565 685M1585 695L1575 705L1565 705L1555 705L1545 705M1455 715L1445 725L1435 735L1425 735L1415 735L1405 735L1395 735L1385 735L1375 735L1365 735L1355 735L1345 735L1335 735M1515 715L1505 705L1495 705L1485 695L1475 695L1465 695L1455 695L1445 695L1435 695L1425 695L1415 695L1405 695L1395 695L1385 695L1375 705L1365 705L1355 705L1345 705L1335 705L1325 705M1525 705L1515 705L1505 695L1495 695L1485 685L1475 685L1465 685L1455 685L1445 685L1435 685L1425 685L1415 685L1405 685M1365 725L1355 715L1345 715M1435 725L1425 715L1415 715L1405 715L1395 715L1385 715L1375 715L1365 715M1335 715L1325 725L1315 725L1305 725L1295 725L1285 725L1275 725L1265 725L1255 725L1245 715M1535 695L1525 695L1515 695L1505 685L1495 685L1485 675L1475 675L1465 675L1455 675L1445 675L1435 675M1855 685L1845 675M1345 725L1335 725M1615 695L1605 685M1465 715L1455 725L1445 735M1935 655L1925 665L1915 665L1905 665L1895 675L1885 685L1875 685L1865 685L1855 685L1845 685L1835 685L1825 695L1815 695L1805 695L1795 695L1785 695L1775 695L1765 695L1755 695L1745 695L1735 695L1725 695L1715 695L1705 695L1695 695L1685 695L1675 695L1665 695L1655 695L1645 695L1635 695L1625 695L1615 695L1605 695L1595 695L1585 695L1575 695L1565 695L1555 695L1545 695L1535 695L1525 705L1515 715L1505 715L1495 715L1485 715L1475 715L1465 715L1455 715L1445 715L1435 725L1425 725L1415 725L1405 725L1395 725L1385 725L1375 725L1365 725L1355 725L1345 725L1335 715L1325 715L1315 715L1305 715" stroke="rgba(49, 22, 14, 1)" stroke-width="1.67"></path><path d="M1302.5 715 a2.5 2.5 0 1 0 5 0 a2.5 2.5 0 1 0 -5 0zM1782.5 685 a2.5 2.5 0 1 0 5 0 a2.5 2.5 0 1 0 -5 0zM1662.5 685 a2.5 2.5 0 1 0 5 0 a2.5 2.5 0 1 0 -5 0zM1802.5 685 a2.5 2.5 0 1 0 5 0 a2.5 2.5 0 1 0 -5 0zM1562.5 685 a2.5 2.5 0 1 0 5 0 a2.5 2.5 0 1 0 -5 0zM1542.5 705 a2.5 2.5 0 1 0 5 0 a2.5 2.5 0 1 0 -5 0zM1332.5 735 a2.5 2.5 0 1 0 5 0 a2.5 2.5 0 1 0 -5 0zM1322.5 705 a2.5 2.5 0 1 0 5 0 a2.5 2.5 0 1 0 -5 0zM1402.5 685 a2.5 2.5 0 1 0 5 0 a2.5 2.5 0 1 0 -5 0zM1342.5 715 a2.5 2.5 0 1 0 5 0 a2.5 2.5 0 1 0 -5 0zM1362.5 715 a2.5 2.5 0 1 0 5 0 a2.5 2.5 0 1 0 -5 0zM1242.5 715 a2.5 2.5 0 1 0 5 0 a2.5 2.5 0 1 0 -5 0zM1432.5 675 a2.5 2.5 0 1 0 5 0 a2.5 2.5 0 1 0 -5 0zM1842.5 675 a2.5 2.5 0 1 0 5 0 a2.5 2.5 0 1 0 -5 0zM1332.5 725 a2.5 2.5 0 1 0 5 0 a2.5 2.5 0 1 0 -5 0zM1602.5 685 a2.5 2.5 0 1 0 5 0 a2.5 2.5 0 1 0 -5 0zM1442.5 735 a2.5 2.5 0 1 0 5 0 a2.5 2.5 0 1 0 -5 0z" fill="rgba(49, 22, 14, 1)"></path><path d="M1935 425L1925 425" stroke="rgba(49, 22, 14, 1)" stroke-width="1.67"></path><path d="M1922.5 425 a2.5 2.5 0 1 0 5 0 a2.5 2.5 0 1 0 -5 0z" fill="rgba(49, 22, 14, 1)"></path><path d="M1715 365L1705 365L1695 365M1865 375L1855 385M1725 365L1715 375L1705 375M1775 365L1765 375L1755 375L1745 375L1735 375L1725 375L1715 385M1845 375L1835 385L1825 385M1875 375L1865 385M1935 415L1925 415L1915 415L1905 405L1895 395L1885 385L1875 375L1865 375L1855 375L1845 375L1835 375L1825 375L1815 375L1805 365L1795 365L1785 365L1775 365L1765 365L1755 365L1745 365L1735 365L1725 365L1715 365L1705 355L1695 355L1685 355L1675 355L1665 355L1655 355" stroke="rgba(49, 22, 14, 1)" stroke-width="1.67"></path><path d="M1652.5 355 a2.5 2.5 0 1 0 5 0 a2.5 2.5 0 1 0 -5 0zM1692.5 365 a2.5 2.5 0 1 0 5 0 a2.5 2.5 0 1 0 -5 0zM1852.5 385 a2.5 2.5 0 1 0 5 0 a2.5 2.5 0 1 0 -5 0zM1702.5 375 a2.5 2.5 0 1 0 5 0 a2.5 2.5 0 1 0 -5 0zM1712.5 385 a2.5 2.5 0 1 0 5 0 a2.5 2.5 0 1 0 -5 0zM1822.5 385 a2.5 2.5 0 1 0 5 0 a2.5 2.5 0 1 0 -5 0zM1862.5 385 a2.5 2.5 0 1 0 5 0 a2.5 2.5 0 1 0 -5 0z" fill="rgba(49, 22, 14, 1)"></path><path d="M1935 675L1925 675" stroke="rgba(49, 22, 14, 1)" stroke-width="1.67"></path><path d="M1922.5 675 a2.5 2.5 0 1 0 5 0 a2.5 2.5 0 1 0 -5 0z" fill="rgba(49, 22, 14, 1)"></path><path d="M1935 405L1925 405L1915 405L1905 395" stroke="rgba(49, 22, 14, 1)" stroke-width="1.67"></path><path d="M1902.5 395 a2.5 2.5 0 1 0 5 0 a2.5 2.5 0 1 0 -5 0z" fill="rgba(49, 22, 14, 1)"></path><path d="M1615 715L1605 705L1595 705L1585 705M1255 765L1245 755L1235 755L1225 745L1215 745L1205 745L1195 745L1185 745L1175 745L1165 745L1155 755L1145 755L1135 755L1125 755M1445 745L1435 755L1425 765L1415 765L1405 765L1395 765L1385 765L1375 765L1365 765L1355 765M1715 705L1705 715L1695 715M1475 735L1465 745L1455 755L1445 755L1435 765L1425 775L1415 775L1405 775L1395 775L1385 775L1375 775L1365 775M1275 765L1265 775L1255 775L1245 775M1265 765L1255 755L1245 745L1235 745L1225 735L1215 735L1205 735L1195 735L1185 735L1175 735L1165 735L1155 735L1145 735L1135 735L1125 735L1115 735L1105 735L1095 735L1085 735L1075 735L1065 735L1055 735L1045 735L1035 735M1495 725L1485 735L1475 745L1465 755M1515 725L1505 735L1495 735L1485 745L1475 755M1395 745L1385 755L1375 755L1365 755L1355 755L1345 755L1335 755L1325 765L1315 775L1305 775L1295 785M1295 765L1285 775L1275 775L1265 785L1255 785L1245 795L1235 795L1225 795L1215 795M1645 705L1635 705M1555 715L1545 725L1535 725L1525 725L1515 735L1505 745L1495 755L1485 755M1425 755L1415 745M1595 715L1585 725L1575 725L1565 735L1555 745L1545 745L1535 755L1525 755L1515 755L1505 755M1415 755L1405 755L1395 755M1235 765L1225 775L1215 775L1205 775L1195 775M1605 715L1595 725M1935 685L1925 685L1915 685L1905 685L1895 685L1885 695L1875 695L1865 695L1855 695L1845 695L1835 695L1825 705L1815 705L1805 705L1795 705L1785 705L1775 705L1765 705L1755 705L1745 705L1735 705L1725 705L1715 705L1705 705L1695 705L1685 705L1675 705L1665 705L1655 705L1645 705L1635 715L1625 715L1615 715L1605 715L1595 715L1585 715L1575 715L1565 715L1555 715L1545 715L1535 715L1525 715L1515 725L1505 725L1495 725L1485 725L1475 735L1465 735L1455 745L1445 745L1435 745L1425 755L1415 755L1405 745L1395 745L1385 745L1375 745L1365 745L1355 745L1345 745L1335 745L1325 755L1315 765L1305 765L1295 765L1285 765L1275 765L1265 765L1255 765L1245 765L1235 765L1225 765" stroke="rgba(49, 22, 14, 1)" stroke-width="1.67"></path><path d="M1222.5 765 a2.5 2.5 0 1 0 5 0 a2.5 2.5 0 1 0 -5 0zM1582.5 705 a2.5 2.5 0 1 0 5 0 a2.5 2.5 0 1 0 -5 0zM1122.5 755 a2.5 2.5 0 1 0 5 0 a2.5 2.5 0 1 0 -5 0zM1352.5 765 a2.5 2.5 0 1 0 5 0 a2.5 2.5 0 1 0 -5 0zM1692.5 715 a2.5 2.5 0 1 0 5 0 a2.5 2.5 0 1 0 -5 0zM1362.5 775 a2.5 2.5 0 1 0 5 0 a2.5 2.5 0 1 0 -5 0zM1242.5 775 a2.5 2.5 0 1 0 5 0 a2.5 2.5 0 1 0 -5 0zM1032.5 735 a2.5 2.5 0 1 0 5 0 a2.5 2.5 0 1 0 -5 0zM1462.5 755 a2.5 2.5 0 1 0 5 0 a2.5 2.5 0 1 0 -5 0zM1472.5 755 a2.5 2.5 0 1 0 5 0 a2.5 2.5 0 1 0 -5 0zM1292.5 785 a2.5 2.5 0 1 0 5 0 a2.5 2.5 0 1 0 -5 0zM1212.5 795 a2.5 2.5 0 1 0 5 0 a2.5 2.5 0 1 0 -5 0zM1632.5 705 a2.5 2.5 0 1 0 5 0 a2.5 2.5 0 1 0 -5 0zM1482.5 755 a2.5 2.5 0 1 0 5 0 a2.5 2.5 0 1 0 -5 0zM1412.5 745 a2.5 2.5 0 1 0 5 0 a2.5 2.5 0 1 0 -5 0zM1502.5 755 a2.5 2.5 0 1 0 5 0 a2.5 2.5 0 1 0 -5 0zM1392.5 755 a2.5 2.5 0 1 0 5 0 a2.5 2.5 0 1 0 -5 0zM1192.5 775 a2.5 2.5 0 1 0 5 0 a2.5 2.5 0 1 0 -5 0zM1592.5 725 a2.5 2.5 0 1 0 5 0 a2.5 2.5 0 1 0 -5 0z" fill="rgba(49, 22, 14, 1)"></path><path d="M1625 345L1615 345L1605 345L1595 345L1585 345L1575 345M1645 345L1635 355L1625 355M1905 385L1895 385M1555 335L1545 335L1535 335M1935 395L1925 395L1915 395L1905 385L1895 375L1885 375L1875 365L1865 365L1855 365L1845 365L1835 365L1825 365L1815 365L1805 355L1795 355L1785 355L1775 355L1765 355L1755 355L1745 355L1735 355L1725 355L1715 355L1705 345L1695 345L1685 345L1675 345L1665 345L1655 345L1645 345L1635 345L1625 345L1615 335L1605 335L1595 335L1585 335L1575 335L1565 335L1555 335L1545 345" stroke="rgba(49, 22, 14, 1)" stroke-width="1.67"></path><path d="M1542.5 345 a2.5 2.5 0 1 0 5 0 a2.5 2.5 0 1 0 -5 0zM1572.5 345 a2.5 2.5 0 1 0 5 0 a2.5 2.5 0 1 0 -5 0zM1622.5 355 a2.5 2.5 0 1 0 5 0 a2.5 2.5 0 1 0 -5 0zM1892.5 385 a2.5 2.5 0 1 0 5 0 a2.5 2.5 0 1 0 -5 0zM1532.5 335 a2.5 2.5 0 1 0 5 0 a2.5 2.5 0 1 0 -5 0z" fill="rgba(49, 22, 14, 1)"></path><path d="M1935 695L1925 695L1915 695L1905 695L1895 695L1885 705L1875 705L1865 705L1855 705L1845 705L1835 705L1825 715L1815 715L1805 715L1795 715L1785 715L1775 715L1765 715L1755 715L1745 715L1735 715L1725 715" stroke="rgba(49, 22, 14, 1)" stroke-width="1.67"></path><path d="M1722.5 715 a2.5 2.5 0 1 0 5 0 a2.5 2.5 0 1 0 -5 0z" fill="rgba(49, 22, 14, 1)"></path><path d="M1665 335L1655 325L1645 325L1635 325L1625 325M1535 325L1525 315M1575 325L1565 315L1555 315L1545 315M1895 365L1885 365M1505 315L1495 325L1485 325L1475 325L1465 325L1455 325M1515 315L1505 325M1725 345L1715 335M1735 345L1725 335M1525 325L1515 325M1925 385L1915 375M1745 345L1735 335M1935 385L1925 385L1915 385L1905 375L1895 365L1885 355L1875 355L1865 355L1855 355L1845 355L1835 355L1825 355L1815 355L1805 345L1795 345L1785 345L1775 345L1765 345L1755 345L1745 345L1735 345L1725 345L1715 345L1705 335L1695 335L1685 335L1675 335L1665 335L1655 335L1645 335L1635 335L1625 335L1615 325L1605 325L1595 325L1585 325L1575 325L1565 325L1555 325L1545 325L1535 325L1525 325L1515 315L1505 315L1495 315" stroke="rgba(49, 22, 14, 1)" stroke-width="1.67"></path><path d="M1492.5 315 a2.5 2.5 0 1 0 5 0 a2.5 2.5 0 1 0 -5 0zM1622.5 325 a2.5 2.5 0 1 0 5 0 a2.5 2.5 0 1 0 -5 0zM1522.5 315 a2.5 2.5 0 1 0 5 0 a2.5 2.5 0 1 0 -5 0zM1542.5 315 a2.5 2.5 0 1 0 5 0 a2.5 2.5 0 1 0 -5 0zM1882.5 365 a2.5 2.5 0 1 0 5 0 a2.5 2.5 0 1 0 -5 0zM1452.5 325 a2.5 2.5 0 1 0 5 0 a2.5 2.5 0 1 0 -5 0zM1502.5 325 a2.5 2.5 0 1 0 5 0 a2.5 2.5 0 1 0 -5 0zM1712.5 335 a2.5 2.5 0 1 0 5 0 a2.5 2.5 0 1 0 -5 0zM1722.5 335 a2.5 2.5 0 1 0 5 0 a2.5 2.5 0 1 0 -5 0zM1512.5 325 a2.5 2.5 0 1 0 5 0 a2.5 2.5 0 1 0 -5 0zM1912.5 375 a2.5 2.5 0 1 0 5 0 a2.5 2.5 0 1 0 -5 0zM1732.5 335 a2.5 2.5 0 1 0 5 0 a2.5 2.5 0 1 0 -5 0z" fill="rgba(49, 22, 14, 1)"></path><path d="M1765 725L1755 735L1745 735L1735 735L1725 735L1715 735L1705 735L1695 735L1685 735L1675 735L1665 735M1585 735L1575 745L1565 745L1555 755L1545 755M1665 715L1655 725L1645 725L1635 735L1625 735M1905 705L1895 715M1785 725L1775 735L1765 735L1755 745L1745 745L1735 745L1725 745L1715 745L1705 745M1925 705L1915 715L1905 715M1625 725L1615 725L1605 725M1605 735L1595 745L1585 745L1575 755L1565 755M1795 725L1785 735L1775 745M1935 705L1925 705L1915 705L1905 705L1895 705L1885 715L1875 715L1865 715L1855 715L1845 715L1835 715L1825 725L1815 725L1805 725L1795 725L1785 725L1775 725L1765 725L1755 725L1745 725L1735 725L1725 725L1715 725L1705 725L1695 725L1685 715L1675 715L1665 715L1655 715L1645 715L1635 725L1625 725L1615 735L1605 735L1595 735L1585 735L1575 735" stroke="rgba(49, 22, 14, 1)" stroke-width="1.67"></path><path d="M1572.5 735 a2.5 2.5 0 1 0 5 0 a2.5 2.5 0 1 0 -5 0zM1662.5 735 a2.5 2.5 0 1 0 5 0 a2.5 2.5 0 1 0 -5 0zM1542.5 755 a2.5 2.5 0 1 0 5 0 a2.5 2.5 0 1 0 -5 0zM1622.5 735 a2.5 2.5 0 1 0 5 0 a2.5 2.5 0 1 0 -5 0zM1892.5 715 a2.5 2.5 0 1 0 5 0 a2.5 2.5 0 1 0 -5 0zM1702.5 745 a2.5 2.5 0 1 0 5 0 a2.5 2.5 0 1 0 -5 0zM1902.5 715 a2.5 2.5 0 1 0 5 0 a2.5 2.5 0 1 0 -5 0zM1602.5 725 a2.5 2.5 0 1 0 5 0 a2.5 2.5 0 1 0 -5 0zM1562.5 755 a2.5 2.5 0 1 0 5 0 a2.5 2.5 0 1 0 -5 0zM1772.5 745 a2.5 2.5 0 1 0 5 0 a2.5 2.5 0 1 0 -5 0z" fill="rgba(49, 22, 14, 1)"></path><path d="M1935 375L1925 365L1915 365L1905 365L1895 355" stroke="rgba(49, 22, 14, 1)" stroke-width="1.67"></path><path d="M1892.5 355 a2.5 2.5 0 1 0 5 0 a2.5 2.5 0 1 0 -5 0z" fill="rgba(49, 22, 14, 1)"></path><path d="M1825 735L1815 745M1895 725L1885 735M1855 725L1845 735L1835 735L1825 745M1935 715L1925 725L1915 725L1905 725L1895 725L1885 725L1875 735L1865 735L1855 725L1845 725L1835 725L1825 735L1815 735L1805 735" stroke="rgba(49, 22, 14, 1)" stroke-width="1.67"></path><path d="M1802.5 735 a2.5 2.5 0 1 0 5 0 a2.5 2.5 0 1 0 -5 0zM1812.5 745 a2.5 2.5 0 1 0 5 0 a2.5 2.5 0 1 0 -5 0zM1882.5 735 a2.5 2.5 0 1 0 5 0 a2.5 2.5 0 1 0 -5 0zM1822.5 745 a2.5 2.5 0 1 0 5 0 a2.5 2.5 0 1 0 -5 0z" fill="rgba(49, 22, 14, 1)"></path><path d="M1185 295L1175 285L1165 285L1155 285M1155 295L1145 305L1135 305L1125 305L1115 305L1105 305L1095 305L1085 305L1075 315L1065 315L1055 315L1045 315L1035 315L1025 315L1015 315M1255 295L1245 305L1235 315L1225 325M1565 305L1555 305L1545 305L1535 305L1525 305M1585 315L1575 315M1695 325L1685 315M1485 305L1475 315L1465 315L1455 315L1445 315L1435 315M1105 295L1095 295L1085 295L1075 295L1065 295L1055 295L1045 305M1285 285L1275 295L1265 305L1255 305L1245 315L1235 325M1465 305L1455 295L1445 295L1435 295L1425 295L1415 295L1405 295L1395 295L1385 295L1375 295L1365 285M1325 295L1315 295L1305 295L1295 305L1285 305L1275 305L1265 315L1255 315M1085 275L1075 285L1065 285M1225 295L1215 305L1205 305L1195 305L1185 305M1355 295L1345 285L1335 285L1325 285L1315 275L1305 275L1295 275L1285 275L1275 275M1115 295L1105 285L1095 275L1085 265L1075 265L1065 265L1055 265L1045 265L1035 265L1025 255L1015 255M1245 295L1235 285L1225 285L1215 285L1205 285L1195 285L1185 285L1175 275M1515 305L1505 295L1495 295L1485 295L1475 295L1465 295L1455 285L1445 285L1435 285L1425 285L1415 285L1405 285M1755 335L1745 335M1165 295L1155 305L1145 315L1135 315L1125 315L1115 315L1105 315L1095 315L1085 315L1075 325L1065 325L1055 325L1045 325L1035 325L1025 325L1015 325L1005 325L995 325L985 325M1275 285L1265 285L1255 285L1245 285L1235 275L1225 275L1215 275L1205 275L1195 275M1395 305L1385 315L1375 315M1685 325L1675 325L1665 325M1935 355L1925 355L1915 355L1905 355L1895 345L1885 345L1875 345L1865 345L1855 345L1845 345L1835 345L1825 345L1815 345L1805 335L1795 335L1785 335L1775 335L1765 335L1755 335L1745 325L1735 325L1725 325L1715 325L1705 325L1695 325L1685 325L1675 315L1665 315L1655 315L1645 315L1635 315L1625 315L1615 315L1605 315L1595 315L1585 315L1575 305L1565 305L1555 295L1545 295L1535 295L1525 295L1515 305L1505 305L1495 305L1485 305L1475 305L1465 305L1455 305L1445 305L1435 305L1425 305L1415 305L1405 305L1395 305L1385 305L1375 305L1365 295L1355 295L1345 295L1335 295L1325 295L1315 285L1305 285L1295 285L1285 285L1275 285L1265 295L1255 295L1245 295L1235 295L1225 295L1215 295L1205 295L1195 295L1185 295L1175 295L1165 295L1155 295L1145 295L1135 295L1125 295L1115 295L1105 295L1095 285L1085 275L1075 275L1065 275L1055 275" stroke="rgba(49, 22, 14, 1)" stroke-width="1.67"></path><path d="M1052.5 275 a2.5 2.5 0 1 0 5 0 a2.5 2.5 0 1 0 -5 0zM1152.5 285 a2.5 2.5 0 1 0 5 0 a2.5 2.5 0 1 0 -5 0zM1012.5 315 a2.5 2.5 0 1 0 5 0 a2.5 2.5 0 1 0 -5 0zM1222.5 325 a2.5 2.5 0 1 0 5 0 a2.5 2.5 0 1 0 -5 0zM1522.5 305 a2.5 2.5 0 1 0 5 0 a2.5 2.5 0 1 0 -5 0zM1572.5 315 a2.5 2.5 0 1 0 5 0 a2.5 2.5 0 1 0 -5 0zM1682.5 315 a2.5 2.5 0 1 0 5 0 a2.5 2.5 0 1 0 -5 0zM1432.5 315 a2.5 2.5 0 1 0 5 0 a2.5 2.5 0 1 0 -5 0zM1042.5 305 a2.5 2.5 0 1 0 5 0 a2.5 2.5 0 1 0 -5 0zM1232.5 325 a2.5 2.5 0 1 0 5 0 a2.5 2.5 0 1 0 -5 0zM1362.5 285 a2.5 2.5 0 1 0 5 0 a2.5 2.5 0 1 0 -5 0zM1252.5 315 a2.5 2.5 0 1 0 5 0 a2.5 2.5 0 1 0 -5 0zM1062.5 285 a2.5 2.5 0 1 0 5 0 a2.5 2.5 0 1 0 -5 0zM1182.5 305 a2.5 2.5 0 1 0 5 0 a2.5 2.5 0 1 0 -5 0zM1272.5 275 a2.5 2.5 0 1 0 5 0 a2.5 2.5 0 1 0 -5 0zM1012.5 255 a2.5 2.5 0 1 0 5 0 a2.5 2.5 0 1 0 -5 0zM1172.5 275 a2.5 2.5 0 1 0 5 0 a2.5 2.5 0 1 0 -5 0zM1402.5 285 a2.5 2.5 0 1 0 5 0 a2.5 2.5 0 1 0 -5 0zM1742.5 335 a2.5 2.5 0 1 0 5 0 a2.5 2.5 0 1 0 -5 0zM982.5 325 a2.5 2.5 0 1 0 5 0 a2.5 2.5 0 1 0 -5 0zM1192.5 275 a2.5 2.5 0 1 0 5 0 a2.5 2.5 0 1 0 -5 0zM1372.5 315 a2.5 2.5 0 1 0 5 0 a2.5 2.5 0 1 0 -5 0zM1662.5 325 a2.5 2.5 0 1 0 5 0 a2.5 2.5 0 1 0 -5 0z" fill="rgba(49, 22, 14, 1)"></path><path d="M1555 765L1545 765L1535 765M1765 765L1755 755M1915 735L1905 735L1895 735M1525 775L1515 765M1535 775L1525 785L1515 785L1505 785L1495 785M1665 765L1655 755L1645 755L1635 755L1625 755L1615 755M1745 765L1735 755L1725 755L1715 755L1705 755L1695 755L1685 755L1675 755L1665 755L1655 745L1645 745L1635 745L1625 745L1615 745L1605 745L1595 755M1805 755L1795 745L1785 745M1485 765L1475 775M1465 765L1455 775L1445 775M1845 755L1835 745M1625 775L1615 765L1605 765M1935 735L1925 735L1915 735L1905 745L1895 745L1885 745L1875 745L1865 745L1855 755L1845 755L1835 755L1825 755L1815 755L1805 755L1795 755L1785 755L1775 755L1765 765L1755 765L1745 765L1735 765L1725 765L1715 765L1705 765L1695 765L1685 765L1675 765L1665 765L1655 765L1645 765L1635 775L1625 775L1615 775L1605 775L1595 775L1585 775L1575 775L1565 765L1555 765L1545 775L1535 775L1525 775L1515 775L1505 775L1495 765L1485 765L1475 765L1465 765L1455 765" stroke="rgba(49, 22, 14, 1)" stroke-width="1.67"></path><path d="M1452.5 765 a2.5 2.5 0 1 0 5 0 a2.5 2.5 0 1 0 -5 0zM1532.5 765 a2.5 2.5 0 1 0 5 0 a2.5 2.5 0 1 0 -5 0zM1752.5 755 a2.5 2.5 0 1 0 5 0 a2.5 2.5 0 1 0 -5 0zM1892.5 735 a2.5 2.5 0 1 0 5 0 a2.5 2.5 0 1 0 -5 0zM1512.5 765 a2.5 2.5 0 1 0 5 0 a2.5 2.5 0 1 0 -5 0zM1492.5 785 a2.5 2.5 0 1 0 5 0 a2.5 2.5 0 1 0 -5 0zM1612.5 755 a2.5 2.5 0 1 0 5 0 a2.5 2.5 0 1 0 -5 0zM1592.5 755 a2.5 2.5 0 1 0 5 0 a2.5 2.5 0 1 0 -5 0zM1782.5 745 a2.5 2.5 0 1 0 5 0 a2.5 2.5 0 1 0 -5 0zM1472.5 775 a2.5 2.5 0 1 0 5 0 a2.5 2.5 0 1 0 -5 0zM1442.5 775 a2.5 2.5 0 1 0 5 0 a2.5 2.5 0 1 0 -5 0zM1832.5 745 a2.5 2.5 0 1 0 5 0 a2.5 2.5 0 1 0 -5 0zM1602.5 765 a2.5 2.5 0 1 0 5 0 a2.5 2.5 0 1 0 -5 0z" fill="rgba(49, 22, 14, 1)"></path><path d="M1705 315L1695 315M1935 345L1925 345L1915 345L1905 345L1895 335L1885 335L1875 335L1865 335L1855 335L1845 335L1835 335L1825 335L1815 335L1805 325L1795 325L1785 325L1775 325L1765 325L1755 325L1745 315L1735 315L1725 315L1715 315L1705 315L1695 305L1685 305L1675 305L1665 305L1655 305L1645 305L1635 305L1625 305L1615 305L1605 305L1595 305L1585 305L1575 295L1565 295L1555 285L1545 285L1535 285L1525 285L1515 285L1505 285L1495 285" stroke="rgba(49, 22, 14, 1)" stroke-width="1.67"></path><path d="M1492.5 285 a2.5 2.5 0 1 0 5 0 a2.5 2.5 0 1 0 -5 0zM1692.5 315 a2.5 2.5 0 1 0 5 0 a2.5 2.5 0 1 0 -5 0z" fill="rgba(49, 22, 14, 1)"></path><path d="M1705 775L1695 785L1685 795L1675 795M1395 795L1385 785L1375 785M1745 775L1735 785L1725 785L1715 785L1705 785L1695 795M1625 785L1615 795L1605 795L1595 795L1585 795M1565 785L1555 775M1355 795L1345 795L1335 795L1325 785L1315 785L1305 785M1665 775L1655 785L1645 785L1635 795L1625 795M1335 805L1325 805L1315 805L1305 805L1295 805L1285 805L1275 805L1265 815L1255 815L1245 825L1235 825L1225 825L1215 825M1445 795L1435 785L1425 785L1415 785L1405 785M1805 765L1795 775L1785 775M1455 795L1445 785M1425 795L1415 805L1405 805M1435 795L1425 805M1365 795L1355 785L1345 785L1335 785M1755 775L1745 785L1735 795L1725 795L1715 795L1705 795M1685 775L1675 785L1665 785L1655 795L1645 795M1935 745L1925 745L1915 745L1905 755L1895 755L1885 755L1875 755L1865 755L1855 765L1845 765L1835 765L1825 765L1815 765L1805 765L1795 765L1785 765L1775 765L1765 775L1755 775L1745 775L1735 775L1725 775L1715 775L1705 775L1695 775L1685 775L1675 775L1665 775L1655 775L1645 775L1635 785L1625 785L1615 785L1605 785L1595 785L1585 785L1575 785L1565 785L1555 785L1545 785L1535 795L1525 795L1515 795L1505 795L1495 795L1485 795L1475 795L1465 795L1455 795L1445 795L1435 795L1425 795L1415 795L1405 795L1395 795L1385 795L1375 795L1365 795L1355 795L1345 805L1335 805L1325 795L1315 795L1305 795L1295 795L1285 795" stroke="rgba(49, 22, 14, 1)" stroke-width="1.67"></path><path d="M1282.5 795 a2.5 2.5 0 1 0 5 0 a2.5 2.5 0 1 0 -5 0zM1672.5 795 a2.5 2.5 0 1 0 5 0 a2.5 2.5 0 1 0 -5 0zM1372.5 785 a2.5 2.5 0 1 0 5 0 a2.5 2.5 0 1 0 -5 0zM1692.5 795 a2.5 2.5 0 1 0 5 0 a2.5 2.5 0 1 0 -5 0zM1582.5 795 a2.5 2.5 0 1 0 5 0 a2.5 2.5 0 1 0 -5 0zM1552.5 775 a2.5 2.5 0 1 0 5 0 a2.5 2.5 0 1 0 -5 0zM1302.5 785 a2.5 2.5 0 1 0 5 0 a2.5 2.5 0 1 0 -5 0zM1622.5 795 a2.5 2.5 0 1 0 5 0 a2.5 2.5 0 1 0 -5 0zM1212.5 825 a2.5 2.5 0 1 0 5 0 a2.5 2.5 0 1 0 -5 0zM1402.5 785 a2.5 2.5 0 1 0 5 0 a2.5 2.5 0 1 0 -5 0zM1782.5 775 a2.5 2.5 0 1 0 5 0 a2.5 2.5 0 1 0 -5 0zM1442.5 785 a2.5 2.5 0 1 0 5 0 a2.5 2.5 0 1 0 -5 0zM1402.5 805 a2.5 2.5 0 1 0 5 0 a2.5 2.5 0 1 0 -5 0zM1422.5 805 a2.5 2.5 0 1 0 5 0 a2.5 2.5 0 1 0 -5 0zM1332.5 785 a2.5 2.5 0 1 0 5 0 a2.5 2.5 0 1 0 -5 0zM1702.5 795 a2.5 2.5 0 1 0 5 0 a2.5 2.5 0 1 0 -5 0zM1642.5 795 a2.5 2.5 0 1 0 5 0 a2.5 2.5 0 1 0 -5 0z" fill="rgba(49, 22, 14, 1)"></path><path d="M1455 265L1445 275L1435 275L1425 275L1415 275L1405 275L1395 275L1385 275L1375 285M1575 285L1565 275M1255 245L1245 255L1235 255L1225 255L1215 255L1205 255L1195 255L1185 255L1175 255L1165 255L1155 255L1145 255L1135 255L1125 255M1365 265L1355 275M1625 295L1615 285L1605 285L1595 275L1585 275M1465 265L1455 275M1595 295L1585 285M1395 265L1385 255L1375 255L1365 255L1355 255L1345 245L1335 245L1325 245L1315 245M1265 245L1255 255L1245 265L1235 265L1225 265L1215 265L1205 265L1195 265L1185 265L1175 265L1165 265L1155 265L1145 265L1135 265L1125 265M1655 295L1645 285L1635 285L1625 285L1615 275L1605 275M1415 265L1405 255L1395 255L1385 245L1375 245L1365 245L1355 245M1335 265L1325 275M1485 265L1475 255L1465 255L1455 255M1515 275L1505 275L1495 275L1485 275L1475 285M1345 265L1335 275M1495 265L1485 255M1315 255L1305 255L1295 255L1285 255L1275 255L1265 255L1255 265L1245 275M1435 265L1425 255L1415 255L1405 245L1395 245M1475 265L1465 275M1935 335L1925 335L1915 335L1905 335L1895 325L1885 325L1875 325L1865 325L1855 325L1845 325L1835 325L1825 325L1815 325L1805 315L1795 315L1785 315L1775 315L1765 315L1755 315L1745 305L1735 305L1725 305L1715 305L1705 305L1695 295L1685 295L1675 295L1665 295L1655 295L1645 295L1635 295L1625 295L1615 295L1605 295L1595 295L1585 295L1575 285L1565 285L1555 275L1545 275L1535 275L1525 275L1515 275L1505 265L1495 265L1485 265L1475 265L1465 265L1455 265L1445 265L1435 265L1425 265L1415 265L1405 265L1395 265L1385 265L1375 265L1365 265L1355 265L1345 265L1335 265L1325 265L1315 255L1305 245L1295 245L1285 245L1275 245L1265 245L1255 245L1245 245L1235 245L1225 245L1215 245L1205 245L1195 245L1185 245" stroke="rgba(49, 22, 14, 1)" stroke-width="1.67"></path><path d="M1182.5 245 a2.5 2.5 0 1 0 5 0 a2.5 2.5 0 1 0 -5 0zM1372.5 285 a2.5 2.5 0 1 0 5 0 a2.5 2.5 0 1 0 -5 0zM1562.5 275 a2.5 2.5 0 1 0 5 0 a2.5 2.5 0 1 0 -5 0zM1122.5 255 a2.5 2.5 0 1 0 5 0 a2.5 2.5 0 1 0 -5 0zM1352.5 275 a2.5 2.5 0 1 0 5 0 a2.5 2.5 0 1 0 -5 0zM1582.5 275 a2.5 2.5 0 1 0 5 0 a2.5 2.5 0 1 0 -5 0zM1452.5 275 a2.5 2.5 0 1 0 5 0 a2.5 2.5 0 1 0 -5 0zM1582.5 285 a2.5 2.5 0 1 0 5 0 a2.5 2.5 0 1 0 -5 0zM1312.5 245 a2.5 2.5 0 1 0 5 0 a2.5 2.5 0 1 0 -5 0zM1122.5 265 a2.5 2.5 0 1 0 5 0 a2.5 2.5 0 1 0 -5 0zM1602.5 275 a2.5 2.5 0 1 0 5 0 a2.5 2.5 0 1 0 -5 0zM1352.5 245 a2.5 2.5 0 1 0 5 0 a2.5 2.5 0 1 0 -5 0zM1322.5 275 a2.5 2.5 0 1 0 5 0 a2.5 2.5 0 1 0 -5 0zM1452.5 255 a2.5 2.5 0 1 0 5 0 a2.5 2.5 0 1 0 -5 0zM1472.5 285 a2.5 2.5 0 1 0 5 0 a2.5 2.5 0 1 0 -5 0zM1332.5 275 a2.5 2.5 0 1 0 5 0 a2.5 2.5 0 1 0 -5 0zM1482.5 255 a2.5 2.5 0 1 0 5 0 a2.5 2.5 0 1 0 -5 0zM1242.5 275 a2.5 2.5 0 1 0 5 0 a2.5 2.5 0 1 0 -5 0zM1392.5 245 a2.5 2.5 0 1 0 5 0 a2.5 2.5 0 1 0 -5 0zM1462.5 275 a2.5 2.5 0 1 0 5 0 a2.5 2.5 0 1 0 -5 0z" fill="rgba(49, 22, 14, 1)"></path><path d="M1885 765L1875 775L1865 775M1815 785L1805 775M1785 785L1775 785L1765 785L1755 785M1845 775L1835 785M1935 755L1925 755L1915 755L1905 765L1895 765L1885 765L1875 765L1865 765L1855 775L1845 775L1835 775L1825 785L1815 785L1805 785L1795 785L1785 785L1775 775" stroke="rgba(49, 22, 14, 1)" stroke-width="1.67"></path><path d="M1772.5 775 a2.5 2.5 0 1 0 5 0 a2.5 2.5 0 1 0 -5 0zM1862.5 775 a2.5 2.5 0 1 0 5 0 a2.5 2.5 0 1 0 -5 0zM1802.5 775 a2.5 2.5 0 1 0 5 0 a2.5 2.5 0 1 0 -5 0zM1752.5 785 a2.5 2.5 0 1 0 5 0 a2.5 2.5 0 1 0 -5 0zM1832.5 785 a2.5 2.5 0 1 0 5 0 a2.5 2.5 0 1 0 -5 0z" fill="rgba(49, 22, 14, 1)"></path><path d="M1655 265L1645 275L1635 275L1625 275M1095 235L1085 245L1075 245L1065 245L1055 245M1195 235L1185 225M1205 235L1195 225L1185 215L1175 215L1165 215L1155 215L1145 215L1135 215L1125 215L1115 215M1495 245L1485 235L1475 235M1175 235L1165 245L1155 245L1145 245M1475 245L1465 245L1455 245M1335 235L1325 225L1315 225L1305 225L1295 225L1285 225M1425 235L1415 245M1125 235L1115 245L1105 245L1095 245L1085 255L1075 255L1065 255L1055 255M1435 235L1425 245M1525 255L1515 245L1505 235L1495 235M1345 235L1335 225L1325 215L1315 215L1305 215M1085 235L1075 225L1065 225L1055 225L1045 225L1035 225L1025 225L1015 225L1005 225L995 225M1215 235L1205 225L1195 215L1185 205L1175 205L1165 205M1535 255L1525 245L1515 235L1505 225M1135 235L1125 225L1115 225L1105 225L1095 225L1085 225M1165 235L1155 225L1145 225L1135 225M1675 265L1665 275M1265 235L1255 225L1245 225L1235 225L1225 225L1215 225L1205 215L1195 205L1185 195L1175 195L1165 195M1275 235L1265 225L1255 215L1245 215L1235 215L1225 215L1215 215L1205 205M1355 235L1345 225L1335 215L1325 205M1935 325L1925 325L1915 325L1905 325L1895 315L1885 315L1875 315L1865 315L1855 315L1845 315L1835 315L1825 315L1815 315L1805 305L1795 305L1785 305L1775 305L1765 305L1755 305L1745 295L1735 295L1725 295L1715 295L1705 295L1695 285L1685 275L1675 265L1665 265L1655 265L1645 265L1635 265L1625 265L1615 265L1605 265L1595 265L1585 265L1575 265L1565 265L1555 265L1545 265L1535 255L1525 255L1515 255L1505 255L1495 245L1485 245L1475 245L1465 235L1455 235L1445 235L1435 235L1425 235L1415 235L1405 235L1395 235L1385 235L1375 235L1365 235L1355 235L1345 235L1335 235L1325 235L1315 235L1305 235L1295 235L1285 235L1275 235L1265 235L1255 235L1245 235L1235 235L1225 235L1215 235L1205 235L1195 235L1185 235L1175 235L1165 235L1155 235L1145 235L1135 235L1125 235L1115 235L1105 235L1095 235L1085 235L1075 235L1065 235" stroke="rgba(49, 22, 14, 1)" stroke-width="1.67"></path><path d="M1062.5 235 a2.5 2.5 0 1 0 5 0 a2.5 2.5 0 1 0 -5 0zM1622.5 275 a2.5 2.5 0 1 0 5 0 a2.5 2.5 0 1 0 -5 0zM1052.5 245 a2.5 2.5 0 1 0 5 0 a2.5 2.5 0 1 0 -5 0zM1182.5 225 a2.5 2.5 0 1 0 5 0 a2.5 2.5 0 1 0 -5 0zM1112.5 215 a2.5 2.5 0 1 0 5 0 a2.5 2.5 0 1 0 -5 0zM1472.5 235 a2.5 2.5 0 1 0 5 0 a2.5 2.5 0 1 0 -5 0zM1142.5 245 a2.5 2.5 0 1 0 5 0 a2.5 2.5 0 1 0 -5 0zM1452.5 245 a2.5 2.5 0 1 0 5 0 a2.5 2.5 0 1 0 -5 0zM1282.5 225 a2.5 2.5 0 1 0 5 0 a2.5 2.5 0 1 0 -5 0zM1412.5 245 a2.5 2.5 0 1 0 5 0 a2.5 2.5 0 1 0 -5 0zM1052.5 255 a2.5 2.5 0 1 0 5 0 a2.5 2.5 0 1 0 -5 0zM1422.5 245 a2.5 2.5 0 1 0 5 0 a2.5 2.5 0 1 0 -5 0zM1492.5 235 a2.5 2.5 0 1 0 5 0 a2.5 2.5 0 1 0 -5 0zM1302.5 215 a2.5 2.5 0 1 0 5 0 a2.5 2.5 0 1 0 -5 0zM992.5 225 a2.5 2.5 0 1 0 5 0 a2.5 2.5 0 1 0 -5 0zM1162.5 205 a2.5 2.5 0 1 0 5 0 a2.5 2.5 0 1 0 -5 0zM1502.5 225 a2.5 2.5 0 1 0 5 0 a2.5 2.5 0 1 0 -5 0zM1082.5 225 a2.5 2.5 0 1 0 5 0 a2.5 2.5 0 1 0 -5 0zM1132.5 225 a2.5 2.5 0 1 0 5 0 a2.5 2.5 0 1 0 -5 0zM1662.5 275 a2.5 2.5 0 1 0 5 0 a2.5 2.5 0 1 0 -5 0zM1162.5 195 a2.5 2.5 0 1 0 5 0 a2.5 2.5 0 1 0 -5 0zM1202.5 205 a2.5 2.5 0 1 0 5 0 a2.5 2.5 0 1 0 -5 0zM1322.5 205 a2.5 2.5 0 1 0 5 0 a2.5 2.5 0 1 0 -5 0z" fill="rgba(49, 22, 14, 1)"></path><path d="M1895 785L1885 775M1905 775L1895 775M1935 765L1925 765L1915 765L1905 775L1895 785L1885 785L1875 785" stroke="rgba(49, 22, 14, 1)" stroke-width="1.67"></path><path d="M1872.5 785 a2.5 2.5 0 1 0 5 0 a2.5 2.5 0 1 0 -5 0zM1882.5 775 a2.5 2.5 0 1 0 5 0 a2.5 2.5 0 1 0 -5 0zM1892.5 775 a2.5 2.5 0 1 0 5 0 a2.5 2.5 0 1 0 -5 0z" fill="rgba(49, 22, 14, 1)"></path><path d="M1845 305L1835 295L1825 295L1815 295M1605 255L1595 245L1585 245L1575 245L1565 245L1555 255M1865 305L1855 295L1845 295M1615 255L1605 245M1935 315L1925 315L1915 315L1905 315L1895 305L1885 305L1875 305L1865 305L1855 305L1845 305L1835 305L1825 305L1815 305L1805 295L1795 295L1785 295L1775 295L1765 295L1755 295L1745 285L1735 285L1725 285L1715 285L1705 285L1695 275L1685 265L1675 255L1665 255L1655 255L1645 255L1635 255L1625 255L1615 255L1605 255L1595 255L1585 255L1575 255" stroke="rgba(49, 22, 14, 1)" stroke-width="1.67"></path><path d="M1572.5 255 a2.5 2.5 0 1 0 5 0 a2.5 2.5 0 1 0 -5 0zM1812.5 295 a2.5 2.5 0 1 0 5 0 a2.5 2.5 0 1 0 -5 0zM1552.5 255 a2.5 2.5 0 1 0 5 0 a2.5 2.5 0 1 0 -5 0zM1842.5 295 a2.5 2.5 0 1 0 5 0 a2.5 2.5 0 1 0 -5 0zM1602.5 245 a2.5 2.5 0 1 0 5 0 a2.5 2.5 0 1 0 -5 0z" fill="rgba(49, 22, 14, 1)"></path><path d="M1335 815L1325 825L1315 825L1305 825L1295 825L1285 825L1275 825M1375 805L1365 815L1355 815L1345 825M1455 805L1445 805L1435 805M1555 795L1545 805L1535 815L1525 815L1515 815L1505 815L1495 815L1485 815L1475 825L1465 825L1455 825L1445 825L1435 825L1425 835L1415 835L1405 835L1395 835L1385 835L1375 835L1365 835M1565 795L1555 805L1545 815M1385 805L1375 815M1635 805L1625 815L1615 815M1725 805L1715 815L1705 815L1695 815L1685 815L1675 815L1665 815L1655 815L1645 815L1635 815M1595 805L1585 815L1575 815L1565 815L1555 815M1465 805L1455 815M1845 795L1835 805M1415 815L1405 825L1395 825L1385 825L1375 825L1365 825L1355 825L1345 835L1335 835L1325 835L1315 835M1395 805L1385 815M1855 795L1845 805M1575 795L1565 805M1475 805L1465 815M1935 775L1925 775L1915 775L1905 785L1895 795L1885 795L1875 795L1865 795L1855 795L1845 795L1835 795L1825 795L1815 795L1805 795L1795 795L1785 795L1775 795L1765 795L1755 805L1745 805L1735 805L1725 805L1715 805L1705 805L1695 805L1685 805L1675 805L1665 805L1655 805L1645 805L1635 805L1625 805L1615 805L1605 805L1595 805L1585 805L1575 795L1565 795L1555 795L1545 795L1535 805L1525 805L1515 805L1505 805L1495 805L1485 805L1475 805L1465 805L1455 805L1445 815L1435 815L1425 815L1415 815L1405 815L1395 805L1385 805L1375 805L1365 805L1355 805L1345 815L1335 815L1325 815L1315 815L1305 815L1295 815" stroke="rgba(49, 22, 14, 1)" stroke-width="1.67"></path><path d="M1292.5 815 a2.5 2.5 0 1 0 5 0 a2.5 2.5 0 1 0 -5 0zM1272.5 825 a2.5 2.5 0 1 0 5 0 a2.5 2.5 0 1 0 -5 0zM1342.5 825 a2.5 2.5 0 1 0 5 0 a2.5 2.5 0 1 0 -5 0zM1432.5 805 a2.5 2.5 0 1 0 5 0 a2.5 2.5 0 1 0 -5 0zM1362.5 835 a2.5 2.5 0 1 0 5 0 a2.5 2.5 0 1 0 -5 0zM1542.5 815 a2.5 2.5 0 1 0 5 0 a2.5 2.5 0 1 0 -5 0zM1372.5 815 a2.5 2.5 0 1 0 5 0 a2.5 2.5 0 1 0 -5 0zM1612.5 815 a2.5 2.5 0 1 0 5 0 a2.5 2.5 0 1 0 -5 0zM1632.5 815 a2.5 2.5 0 1 0 5 0 a2.5 2.5 0 1 0 -5 0zM1552.5 815 a2.5 2.5 0 1 0 5 0 a2.5 2.5 0 1 0 -5 0zM1452.5 815 a2.5 2.5 0 1 0 5 0 a2.5 2.5 0 1 0 -5 0zM1832.5 805 a2.5 2.5 0 1 0 5 0 a2.5 2.5 0 1 0 -5 0zM1312.5 835 a2.5 2.5 0 1 0 5 0 a2.5 2.5 0 1 0 -5 0zM1382.5 815 a2.5 2.5 0 1 0 5 0 a2.5 2.5 0 1 0 -5 0zM1842.5 805 a2.5 2.5 0 1 0 5 0 a2.5 2.5 0 1 0 -5 0zM1562.5 805 a2.5 2.5 0 1 0 5 0 a2.5 2.5 0 1 0 -5 0zM1462.5 815 a2.5 2.5 0 1 0 5 0 a2.5 2.5 0 1 0 -5 0z" fill="rgba(49, 22, 14, 1)"></path><path d="M1655 245L1645 235M1665 245L1655 235M1935 305L1925 305L1915 305L1905 305L1895 295L1885 295L1875 295L1865 285L1855 285L1845 285L1835 285L1825 285L1815 285L1805 285L1795 285L1785 285L1775 285L1765 285L1755 285L1745 275L1735 275L1725 275L1715 275L1705 275L1695 265L1685 255L1675 245L1665 245L1655 245L1645 245L1635 245" stroke="rgba(49, 22, 14, 1)" stroke-width="1.67"></path><path d="M1632.5 245 a2.5 2.5 0 1 0 5 0 a2.5 2.5 0 1 0 -5 0zM1642.5 235 a2.5 2.5 0 1 0 5 0 a2.5 2.5 0 1 0 -5 0zM1652.5 235 a2.5 2.5 0 1 0 5 0 a2.5 2.5 0 1 0 -5 0z" fill="rgba(49, 22, 14, 1)"></path><path d="M1535 825L1525 835M1925 785L1915 795M1405 845L1395 855L1385 855L1375 855L1365 855L1355 855L1345 855L1335 855L1325 855L1315 855L1305 855L1295 855L1285 855L1275 855L1265 855L1255 855M1575 825L1565 835L1555 835M1715 825L1705 835L1695 835L1685 835L1675 835L1665 835L1655 835L1645 835L1635 835L1625 835M1515 835L1505 825L1495 825L1485 825M1605 825L1595 835L1585 835L1575 835L1565 845L1555 845L1545 845L1535 845L1525 845L1515 845L1505 855M1445 845L1435 835M1495 835L1485 845L1475 855L1465 855M1465 845L1455 835L1445 835M1485 835L1475 835L1465 835M1745 815L1735 815L1725 815M1435 845L1425 855L1415 865L1405 865M1935 785L1925 785L1915 785L1905 795L1895 805L1885 805L1875 815L1865 815L1855 815L1845 815L1835 815L1825 805L1815 805L1805 805L1795 805L1785 805L1775 805L1765 805L1755 815L1745 815L1735 825L1725 825L1715 825L1705 825L1695 825L1685 825L1675 825L1665 825L1655 825L1645 825L1635 825L1625 825L1615 825L1605 825L1595 825L1585 825L1575 825L1565 825L1555 825L1545 825L1535 825L1525 825L1515 835L1505 835L1495 835L1485 835L1475 845L1465 845L1455 845L1445 845L1435 845L1425 845L1415 845L1405 845L1395 845" stroke="rgba(49, 22, 14, 1)" stroke-width="1.67"></path><path d="M1392.5 845 a2.5 2.5 0 1 0 5 0 a2.5 2.5 0 1 0 -5 0zM1522.5 835 a2.5 2.5 0 1 0 5 0 a2.5 2.5 0 1 0 -5 0zM1912.5 795 a2.5 2.5 0 1 0 5 0 a2.5 2.5 0 1 0 -5 0zM1252.5 855 a2.5 2.5 0 1 0 5 0 a2.5 2.5 0 1 0 -5 0zM1552.5 835 a2.5 2.5 0 1 0 5 0 a2.5 2.5 0 1 0 -5 0zM1622.5 835 a2.5 2.5 0 1 0 5 0 a2.5 2.5 0 1 0 -5 0zM1482.5 825 a2.5 2.5 0 1 0 5 0 a2.5 2.5 0 1 0 -5 0zM1502.5 855 a2.5 2.5 0 1 0 5 0 a2.5 2.5 0 1 0 -5 0zM1432.5 835 a2.5 2.5 0 1 0 5 0 a2.5 2.5 0 1 0 -5 0zM1462.5 855 a2.5 2.5 0 1 0 5 0 a2.5 2.5 0 1 0 -5 0zM1442.5 835 a2.5 2.5 0 1 0 5 0 a2.5 2.5 0 1 0 -5 0zM1462.5 835 a2.5 2.5 0 1 0 5 0 a2.5 2.5 0 1 0 -5 0zM1722.5 815 a2.5 2.5 0 1 0 5 0 a2.5 2.5 0 1 0 -5 0zM1402.5 865 a2.5 2.5 0 1 0 5 0 a2.5 2.5 0 1 0 -5 0z" fill="rgba(49, 22, 14, 1)"></path><path d="M1625 225L1615 235L1605 235M1525 205L1515 215L1505 215M1465 195L1455 195L1445 195L1435 195M1535 205L1525 215L1515 225M1635 225L1625 235L1615 245M1615 225L1605 225L1595 225L1585 225L1575 225L1565 225L1555 225L1545 225M1435 185L1425 175L1415 175L1405 175L1395 175L1385 175L1375 175L1365 175L1355 175L1345 175L1335 175L1325 185L1315 185L1305 185L1295 185L1285 195M1415 185L1405 195L1395 205L1385 205L1375 205M1575 195L1565 185L1555 185M1555 205L1545 215L1535 215L1525 225M1425 185L1415 195L1405 205L1395 215L1385 215M1605 215L1595 215L1585 215L1575 215L1565 215L1555 215M1515 205L1505 195L1495 185L1485 185L1475 185L1465 185L1455 175L1445 175L1435 175L1425 165L1415 165M1595 205L1585 205L1575 205L1565 205M1935 295L1925 295L1915 295L1905 295L1895 285L1885 285L1875 285L1865 275L1855 275L1845 275L1835 275L1825 275L1815 275L1805 275L1795 275L1785 275L1775 275L1765 275L1755 275L1745 265L1735 265L1725 265L1715 265L1705 265L1695 255L1685 245L1675 235L1665 225L1655 225L1645 225L1635 225L1625 225L1615 225L1605 215L1595 205L1585 195L1575 195L1565 195L1555 205L1545 205L1535 205L1525 205L1515 205L1505 205L1495 195L1485 195L1475 195L1465 195L1455 185L1445 185L1435 185L1425 185L1415 185L1405 185L1395 185L1385 185" stroke="rgba(49, 22, 14, 1)" stroke-width="1.67"></path><path d="M1382.5 185 a2.5 2.5 0 1 0 5 0 a2.5 2.5 0 1 0 -5 0zM1602.5 235 a2.5 2.5 0 1 0 5 0 a2.5 2.5 0 1 0 -5 0zM1502.5 215 a2.5 2.5 0 1 0 5 0 a2.5 2.5 0 1 0 -5 0zM1432.5 195 a2.5 2.5 0 1 0 5 0 a2.5 2.5 0 1 0 -5 0zM1512.5 225 a2.5 2.5 0 1 0 5 0 a2.5 2.5 0 1 0 -5 0zM1612.5 245 a2.5 2.5 0 1 0 5 0 a2.5 2.5 0 1 0 -5 0zM1542.5 225 a2.5 2.5 0 1 0 5 0 a2.5 2.5 0 1 0 -5 0zM1282.5 195 a2.5 2.5 0 1 0 5 0 a2.5 2.5 0 1 0 -5 0zM1372.5 205 a2.5 2.5 0 1 0 5 0 a2.5 2.5 0 1 0 -5 0zM1552.5 185 a2.5 2.5 0 1 0 5 0 a2.5 2.5 0 1 0 -5 0zM1522.5 225 a2.5 2.5 0 1 0 5 0 a2.5 2.5 0 1 0 -5 0zM1382.5 215 a2.5 2.5 0 1 0 5 0 a2.5 2.5 0 1 0 -5 0zM1552.5 215 a2.5 2.5 0 1 0 5 0 a2.5 2.5 0 1 0 -5 0zM1412.5 165 a2.5 2.5 0 1 0 5 0 a2.5 2.5 0 1 0 -5 0zM1562.5 205 a2.5 2.5 0 1 0 5 0 a2.5 2.5 0 1 0 -5 0z" fill="rgba(49, 22, 14, 1)"></path><path d="M1805 815L1795 825L1785 825L1775 825L1765 825L1755 835M1685 845L1675 855L1665 855M1865 825L1855 835L1845 835L1835 835M1875 825L1865 835L1855 845M1715 845L1705 855L1695 855L1685 855L1675 865M1735 835L1725 835L1715 835M1895 815L1885 825L1875 835M1935 795L1925 805L1915 805L1905 805L1895 815L1885 815L1875 825L1865 825L1855 825L1845 825L1835 825L1825 815L1815 815L1805 815L1795 815L1785 815L1775 815L1765 815L1755 825L1745 825L1735 835L1725 845L1715 845L1705 845L1695 845L1685 845L1675 845L1665 845" stroke="rgba(49, 22, 14, 1)" stroke-width="1.67"></path><path d="M1662.5 845 a2.5 2.5 0 1 0 5 0 a2.5 2.5 0 1 0 -5 0zM1752.5 835 a2.5 2.5 0 1 0 5 0 a2.5 2.5 0 1 0 -5 0zM1662.5 855 a2.5 2.5 0 1 0 5 0 a2.5 2.5 0 1 0 -5 0zM1832.5 835 a2.5 2.5 0 1 0 5 0 a2.5 2.5 0 1 0 -5 0zM1852.5 845 a2.5 2.5 0 1 0 5 0 a2.5 2.5 0 1 0 -5 0zM1672.5 865 a2.5 2.5 0 1 0 5 0 a2.5 2.5 0 1 0 -5 0zM1712.5 835 a2.5 2.5 0 1 0 5 0 a2.5 2.5 0 1 0 -5 0zM1872.5 835 a2.5 2.5 0 1 0 5 0 a2.5 2.5 0 1 0 -5 0z" fill="rgba(49, 22, 14, 1)"></path><path d="M1935 285L1925 285L1915 285" stroke="rgba(49, 22, 14, 1)" stroke-width="1.67"></path><path d="M1912.5 285 a2.5 2.5 0 1 0 5 0 a2.5 2.5 0 1 0 -5 0z" fill="rgba(49, 22, 14, 1)"></path><path d="M1305 175L1295 165L1285 165L1275 165L1265 165L1255 165L1245 165L1235 165L1225 165M1725 255L1715 245L1705 245L1695 235M1095 195L1085 185L1075 185M1655 215L1645 205L1635 205L1625 205L1615 205L1605 195L1595 185L1585 175L1575 165L1565 165L1555 155L1545 145M1565 175L1555 175L1545 175L1535 175L1525 175L1515 175L1505 185M1435 155L1425 145M1495 155L1485 165L1475 165L1465 165L1455 165L1445 165L1435 165M1145 185L1135 195L1125 195L1115 195M1865 265L1855 255L1845 255L1835 255L1825 255L1815 255L1805 255L1795 255L1785 255L1775 255M1545 155L1535 165L1525 165M1555 165L1545 165M1365 155L1355 155L1345 155L1335 155M1455 155L1445 145L1435 145M1515 155L1505 145L1495 145M1165 185L1155 175L1145 175L1135 175L1125 175L1115 175M1255 185L1245 195L1235 195L1225 195L1215 195L1205 195L1195 195M1775 265L1765 265L1755 265M1465 155L1455 145L1445 135L1435 135L1425 135L1415 135L1405 125L1395 125L1385 125L1375 125L1365 115L1355 115L1345 115L1335 115L1325 115L1315 115L1305 115L1295 115L1285 115L1275 105L1265 105L1255 105L1245 105L1235 95L1225 95L1215 95L1205 95L1195 95L1185 85L1175 85L1165 85L1155 85L1145 75L1135 65M1485 155L1475 145L1465 135M1245 185L1235 175M1115 185L1105 185L1095 185L1085 175L1075 175L1065 175M1935 275L1925 275L1915 275L1905 275L1895 275L1885 275L1875 275L1865 265L1855 265L1845 265L1835 265L1825 265L1815 265L1805 265L1795 265L1785 265L1775 265L1765 255L1755 255L1745 255L1735 255L1725 255L1715 255L1705 255L1695 245L1685 235L1675 225L1665 215L1655 215L1645 215L1635 215L1625 215L1615 215L1605 205L1595 195L1585 185L1575 175L1565 175L1555 165L1545 155L1535 155L1525 155L1515 155L1505 155L1495 155L1485 155L1475 155L1465 155L1455 155L1445 155L1435 155L1425 155L1415 155L1405 155L1395 155L1385 155L1375 155L1365 155L1355 165L1345 165L1335 165L1325 175L1315 175L1305 175L1295 175L1285 185L1275 185L1265 185L1255 185L1245 185L1235 185L1225 175L1215 175L1205 175L1195 185L1185 185L1175 185L1165 185L1155 185L1145 185L1135 185L1125 185L1115 185L1105 195L1095 195L1085 195" stroke="rgba(49, 22, 14, 1)" stroke-width="1.67"></path><path d="M1082.5 195 a2.5 2.5 0 1 0 5 0 a2.5 2.5 0 1 0 -5 0zM1222.5 165 a2.5 2.5 0 1 0 5 0 a2.5 2.5 0 1 0 -5 0zM1692.5 235 a2.5 2.5 0 1 0 5 0 a2.5 2.5 0 1 0 -5 0zM1072.5 185 a2.5 2.5 0 1 0 5 0 a2.5 2.5 0 1 0 -5 0zM1542.5 145 a2.5 2.5 0 1 0 5 0 a2.5 2.5 0 1 0 -5 0zM1502.5 185 a2.5 2.5 0 1 0 5 0 a2.5 2.5 0 1 0 -5 0zM1422.5 145 a2.5 2.5 0 1 0 5 0 a2.5 2.5 0 1 0 -5 0zM1432.5 165 a2.5 2.5 0 1 0 5 0 a2.5 2.5 0 1 0 -5 0zM1112.5 195 a2.5 2.5 0 1 0 5 0 a2.5 2.5 0 1 0 -5 0zM1772.5 255 a2.5 2.5 0 1 0 5 0 a2.5 2.5 0 1 0 -5 0zM1522.5 165 a2.5 2.5 0 1 0 5 0 a2.5 2.5 0 1 0 -5 0zM1542.5 165 a2.5 2.5 0 1 0 5 0 a2.5 2.5 0 1 0 -5 0zM1332.5 155 a2.5 2.5 0 1 0 5 0 a2.5 2.5 0 1 0 -5 0zM1432.5 145 a2.5 2.5 0 1 0 5 0 a2.5 2.5 0 1 0 -5 0zM1492.5 145 a2.5 2.5 0 1 0 5 0 a2.5 2.5 0 1 0 -5 0zM1112.5 175 a2.5 2.5 0 1 0 5 0 a2.5 2.5 0 1 0 -5 0zM1192.5 195 a2.5 2.5 0 1 0 5 0 a2.5 2.5 0 1 0 -5 0zM1752.5 265 a2.5 2.5 0 1 0 5 0 a2.5 2.5 0 1 0 -5 0zM1132.5 65 a2.5 2.5 0 1 0 5 0 a2.5 2.5 0 1 0 -5 0zM1462.5 135 a2.5 2.5 0 1 0 5 0 a2.5 2.5 0 1 0 -5 0zM1232.5 175 a2.5 2.5 0 1 0 5 0 a2.5 2.5 0 1 0 -5 0zM1062.5 175 a2.5 2.5 0 1 0 5 0 a2.5 2.5 0 1 0 -5 0z" fill="rgba(49, 22, 14, 1)"></path></g></g><defs><mask id="SvgjsMask1078"><rect width="1920" height="1080" fill="#ffffff"></rect></mask><mask id="SvgjsMask1079"><rect width="1920" height="1080" fill="white"></rect><path d="M1763.75 545 a1.25 1.25 0 1 0 2.5 0 a1.25 1.25 0 1 0 -2.5 0zM1763.75 535 a1.25 1.25 0 1 0 2.5 0 a1.25 1.25 0 1 0 -2.5 0zM1773.75 515 a1.25 1.25 0 1 0 2.5 0 a1.25 1.25 0 1 0 -2.5 0zM1843.75 545 a1.25 1.25 0 1 0 2.5 0 a1.25 1.25 0 1 0 -2.5 0zM1823.75 535 a1.25 1.25 0 1 0 2.5 0 a1.25 1.25 0 1 0 -2.5 0z" fill="black"></path><path d="M1853.75 525 a1.25 1.25 0 1 0 2.5 0 a1.25 1.25 0 1 0 -2.5 0z" fill="black"></path><path d="M1663.75 555 a1.25 1.25 0 1 0 2.5 0 a1.25 1.25 0 1 0 -2.5 0zM1823.75 565 a1.25 1.25 0 1 0 2.5 0 a1.25 1.25 0 1 0 -2.5 0zM1663.75 565 a1.25 1.25 0 1 0 2.5 0 a1.25 1.25 0 1 0 -2.5 0zM1693.75 545 a1.25 1.25 0 1 0 2.5 0 a1.25 1.25 0 1 0 -2.5 0zM1653.75 545 a1.25 1.25 0 1 0 2.5 0 a1.25 1.25 0 1 0 -2.5 0zM1763.75 555 a1.25 1.25 0 1 0 2.5 0 a1.25 1.25 0 1 0 -2.5 0zM1753.75 575 a1.25 1.25 0 1 0 2.5 0 a1.25 1.25 0 1 0 -2.5 0zM1883.75 545 a1.25 1.25 0 1 0 2.5 0 a1.25 1.25 0 1 0 -2.5 0z" fill="black"></path><path d="M1833.75 515 a1.25 1.25 0 1 0 2.5 0 a1.25 1.25 0 1 0 -2.5 0zM1813.75 525 a1.25 1.25 0 1 0 2.5 0 a1.25 1.25 0 1 0 -2.5 0zM1813.75 505 a1.25 1.25 0 1 0 2.5 0 a1.25 1.25 0 1 0 -2.5 0z" fill="black"></path><path d="M1033.75 565 a1.25 1.25 0 1 0 2.5 0 a1.25 1.25 0 1 0 -2.5 0zM1333.75 555 a1.25 1.25 0 1 0 2.5 0 a1.25 1.25 0 1 0 -2.5 0zM1403.75 555 a1.25 1.25 0 1 0 2.5 0 a1.25 1.25 0 1 0 -2.5 0zM1003.75 565 a1.25 1.25 0 1 0 2.5 0 a1.25 1.25 0 1 0 -2.5 0zM1303.75 575 a1.25 1.25 0 1 0 2.5 0 a1.25 1.25 0 1 0 -2.5 0zM1063.75 545 a1.25 1.25 0 1 0 2.5 0 a1.25 1.25 0 1 0 -2.5 0zM1053.75 575 a1.25 1.25 0 1 0 2.5 0 a1.25 1.25 0 1 0 -2.5 0zM1043.75 565 a1.25 1.25 0 1 0 2.5 0 a1.25 1.25 0 1 0 -2.5 0zM1863.75 565 a1.25 1.25 0 1 0 2.5 0 a1.25 1.25 0 1 0 -2.5 0zM1343.75 575 a1.25 1.25 0 1 0 2.5 0 a1.25 1.25 0 1 0 -2.5 0zM1713.75 585 a1.25 1.25 0 1 0 2.5 0 a1.25 1.25 0 1 0 -2.5 0zM1473.75 565 a1.25 1.25 0 1 0 2.5 0 a1.25 1.25 0 1 0 -2.5 0zM983.75 585 a1.25 1.25 0 1 0 2.5 0 a1.25 1.25 0 1 0 -2.5 0zM1143.75 575 a1.25 1.25 0 1 0 2.5 0 a1.25 1.25 0 1 0 -2.5 0zM1143.75 555 a1.25 1.25 0 1 0 2.5 0 a1.25 1.25 0 1 0 -2.5 0zM1463.75 585 a1.25 1.25 0 1 0 2.5 0 a1.25 1.25 0 1 0 -2.5 0zM1253.75 535 a1.25 1.25 0 1 0 2.5 0 a1.25 1.25 0 1 0 -2.5 0zM1803.75 575 a1.25 1.25 0 1 0 2.5 0 a1.25 1.25 0 1 0 -2.5 0zM1083.75 565 a1.25 1.25 0 1 0 2.5 0 a1.25 1.25 0 1 0 -2.5 0zM1593.75 555 a1.25 1.25 0 1 0 2.5 0 a1.25 1.25 0 1 0 -2.5 0zM1473.75 595 a1.25 1.25 0 1 0 2.5 0 a1.25 1.25 0 1 0 -2.5 0zM1093.75 565 a1.25 1.25 0 1 0 2.5 0 a1.25 1.25 0 1 0 -2.5 0zM1163.75 595 a1.25 1.25 0 1 0 2.5 0 a1.25 1.25 0 1 0 -2.5 0z" fill="black"></path><path d="M1793.75 505 a1.25 1.25 0 1 0 2.5 0 a1.25 1.25 0 1 0 -2.5 0zM1783.75 485 a1.25 1.25 0 1 0 2.5 0 a1.25 1.25 0 1 0 -2.5 0zM1803.75 485 a1.25 1.25 0 1 0 2.5 0 a1.25 1.25 0 1 0 -2.5 0zM1853.75 505 a1.25 1.25 0 1 0 2.5 0 a1.25 1.25 0 1 0 -2.5 0z" fill="black"></path><path d="M1623.75 595 a1.25 1.25 0 1 0 2.5 0 a1.25 1.25 0 1 0 -2.5 0zM1683.75 595 a1.25 1.25 0 1 0 2.5 0 a1.25 1.25 0 1 0 -2.5 0zM1633.75 585 a1.25 1.25 0 1 0 2.5 0 a1.25 1.25 0 1 0 -2.5 0zM1723.75 585 a1.25 1.25 0 1 0 2.5 0 a1.25 1.25 0 1 0 -2.5 0zM1883.75 585 a1.25 1.25 0 1 0 2.5 0 a1.25 1.25 0 1 0 -2.5 0zM1733.75 585 a1.25 1.25 0 1 0 2.5 0 a1.25 1.25 0 1 0 -2.5 0zM1703.75 595 a1.25 1.25 0 1 0 2.5 0 a1.25 1.25 0 1 0 -2.5 0zM1913.75 585 a1.25 1.25 0 1 0 2.5 0 a1.25 1.25 0 1 0 -2.5 0z" fill="black"></path><path d="M1873.75 485 a1.25 1.25 0 1 0 2.5 0 a1.25 1.25 0 1 0 -2.5 0zM1903.75 505 a1.25 1.25 0 1 0 2.5 0 a1.25 1.25 0 1 0 -2.5 0zM1883.75 485 a1.25 1.25 0 1 0 2.5 0 a1.25 1.25 0 1 0 -2.5 0z" fill="black"></path><path d="M1443.75 585 a1.25 1.25 0 1 0 2.5 0 a1.25 1.25 0 1 0 -2.5 0zM1783.75 605 a1.25 1.25 0 1 0 2.5 0 a1.25 1.25 0 1 0 -2.5 0zM1653.75 605 a1.25 1.25 0 1 0 2.5 0 a1.25 1.25 0 1 0 -2.5 0zM1383.75 625 a1.25 1.25 0 1 0 2.5 0 a1.25 1.25 0 1 0 -2.5 0zM1543.75 605 a1.25 1.25 0 1 0 2.5 0 a1.25 1.25 0 1 0 -2.5 0zM1413.75 595 a1.25 1.25 0 1 0 2.5 0 a1.25 1.25 0 1 0 -2.5 0zM1303.75 635 a1.25 1.25 0 1 0 2.5 0 a1.25 1.25 0 1 0 -2.5 0zM1573.75 625 a1.25 1.25 0 1 0 2.5 0 a1.25 1.25 0 1 0 -2.5 0zM1553.75 605 a1.25 1.25 0 1 0 2.5 0 a1.25 1.25 0 1 0 -2.5 0zM1583.75 605 a1.25 1.25 0 1 0 2.5 0 a1.25 1.25 0 1 0 -2.5 0zM1343.75 605 a1.25 1.25 0 1 0 2.5 0 a1.25 1.25 0 1 0 -2.5 0zM1503.75 625 a1.25 1.25 0 1 0 2.5 0 a1.25 1.25 0 1 0 -2.5 0zM1533.75 625 a1.25 1.25 0 1 0 2.5 0 a1.25 1.25 0 1 0 -2.5 0z" fill="black"></path><path d="M1113.75 415 a1.25 1.25 0 1 0 2.5 0 a1.25 1.25 0 1 0 -2.5 0zM1413.75 465 a1.25 1.25 0 1 0 2.5 0 a1.25 1.25 0 1 0 -2.5 0zM1323.75 455 a1.25 1.25 0 1 0 2.5 0 a1.25 1.25 0 1 0 -2.5 0zM1373.75 455 a1.25 1.25 0 1 0 2.5 0 a1.25 1.25 0 1 0 -2.5 0zM1453.75 445 a1.25 1.25 0 1 0 2.5 0 a1.25 1.25 0 1 0 -2.5 0zM983.75 425 a1.25 1.25 0 1 0 2.5 0 a1.25 1.25 0 1 0 -2.5 0zM1503.75 485 a1.25 1.25 0 1 0 2.5 0 a1.25 1.25 0 1 0 -2.5 0zM1593.75 495 a1.25 1.25 0 1 0 2.5 0 a1.25 1.25 0 1 0 -2.5 0zM1523.75 465 a1.25 1.25 0 1 0 2.5 0 a1.25 1.25 0 1 0 -2.5 0zM1483.75 455 a1.25 1.25 0 1 0 2.5 0 a1.25 1.25 0 1 0 -2.5 0zM1133.75 415 a1.25 1.25 0 1 0 2.5 0 a1.25 1.25 0 1 0 -2.5 0zM1553.75 445 a1.25 1.25 0 1 0 2.5 0 a1.25 1.25 0 1 0 -2.5 0zM1583.75 445 a1.25 1.25 0 1 0 2.5 0 a1.25 1.25 0 1 0 -2.5 0zM1163.75 415 a1.25 1.25 0 1 0 2.5 0 a1.25 1.25 0 1 0 -2.5 0zM1613.75 445 a1.25 1.25 0 1 0 2.5 0 a1.25 1.25 0 1 0 -2.5 0zM1243.75 445 a1.25 1.25 0 1 0 2.5 0 a1.25 1.25 0 1 0 -2.5 0zM1693.75 465 a1.25 1.25 0 1 0 2.5 0 a1.25 1.25 0 1 0 -2.5 0zM1233.75 405 a1.25 1.25 0 1 0 2.5 0 a1.25 1.25 0 1 0 -2.5 0zM1253.75 455 a1.25 1.25 0 1 0 2.5 0 a1.25 1.25 0 1 0 -2.5 0zM1633.75 445 a1.25 1.25 0 1 0 2.5 0 a1.25 1.25 0 1 0 -2.5 0zM1783.75 465 a1.25 1.25 0 1 0 2.5 0 a1.25 1.25 0 1 0 -2.5 0z" fill="black"></path><path d="M1273.75 405 a1.25 1.25 0 1 0 2.5 0 a1.25 1.25 0 1 0 -2.5 0zM1503.75 445 a1.25 1.25 0 1 0 2.5 0 a1.25 1.25 0 1 0 -2.5 0zM1703.75 445 a1.25 1.25 0 1 0 2.5 0 a1.25 1.25 0 1 0 -2.5 0zM1653.75 445 a1.25 1.25 0 1 0 2.5 0 a1.25 1.25 0 1 0 -2.5 0zM1863.75 455 a1.25 1.25 0 1 0 2.5 0 a1.25 1.25 0 1 0 -2.5 0zM1313.75 425 a1.25 1.25 0 1 0 2.5 0 a1.25 1.25 0 1 0 -2.5 0zM1483.75 425 a1.25 1.25 0 1 0 2.5 0 a1.25 1.25 0 1 0 -2.5 0zM1493.75 425 a1.25 1.25 0 1 0 2.5 0 a1.25 1.25 0 1 0 -2.5 0zM1873.75 455 a1.25 1.25 0 1 0 2.5 0 a1.25 1.25 0 1 0 -2.5 0zM1723.75 445 a1.25 1.25 0 1 0 2.5 0 a1.25 1.25 0 1 0 -2.5 0zM1253.75 405 a1.25 1.25 0 1 0 2.5 0 a1.25 1.25 0 1 0 -2.5 0zM1413.75 415 a1.25 1.25 0 1 0 2.5 0 a1.25 1.25 0 1 0 -2.5 0zM1383.75 415 a1.25 1.25 0 1 0 2.5 0 a1.25 1.25 0 1 0 -2.5 0zM1843.75 455 a1.25 1.25 0 1 0 2.5 0 a1.25 1.25 0 1 0 -2.5 0zM1773.75 455 a1.25 1.25 0 1 0 2.5 0 a1.25 1.25 0 1 0 -2.5 0zM1803.75 465 a1.25 1.25 0 1 0 2.5 0 a1.25 1.25 0 1 0 -2.5 0zM1323.75 425 a1.25 1.25 0 1 0 2.5 0 a1.25 1.25 0 1 0 -2.5 0z" fill="black"></path><path d="M1213.75 645 a1.25 1.25 0 1 0 2.5 0 a1.25 1.25 0 1 0 -2.5 0zM1273.75 645 a1.25 1.25 0 1 0 2.5 0 a1.25 1.25 0 1 0 -2.5 0zM1263.75 635 a1.25 1.25 0 1 0 2.5 0 a1.25 1.25 0 1 0 -2.5 0zM1273.75 665 a1.25 1.25 0 1 0 2.5 0 a1.25 1.25 0 1 0 -2.5 0zM1603.75 645 a1.25 1.25 0 1 0 2.5 0 a1.25 1.25 0 1 0 -2.5 0zM1173.75 655 a1.25 1.25 0 1 0 2.5 0 a1.25 1.25 0 1 0 -2.5 0zM1423.75 635 a1.25 1.25 0 1 0 2.5 0 a1.25 1.25 0 1 0 -2.5 0zM1623.75 615 a1.25 1.25 0 1 0 2.5 0 a1.25 1.25 0 1 0 -2.5 0zM1813.75 605 a1.25 1.25 0 1 0 2.5 0 a1.25 1.25 0 1 0 -2.5 0zM1283.75 665 a1.25 1.25 0 1 0 2.5 0 a1.25 1.25 0 1 0 -2.5 0zM1323.75 645 a1.25 1.25 0 1 0 2.5 0 a1.25 1.25 0 1 0 -2.5 0zM1823.75 605 a1.25 1.25 0 1 0 2.5 0 a1.25 1.25 0 1 0 -2.5 0zM1333.75 645 a1.25 1.25 0 1 0 2.5 0 a1.25 1.25 0 1 0 -2.5 0zM1093.75 635 a1.25 1.25 0 1 0 2.5 0 a1.25 1.25 0 1 0 -2.5 0zM1343.75 665 a1.25 1.25 0 1 0 2.5 0 a1.25 1.25 0 1 0 -2.5 0zM1603.75 625 a1.25 1.25 0 1 0 2.5 0 a1.25 1.25 0 1 0 -2.5 0zM1753.75 625 a1.25 1.25 0 1 0 2.5 0 a1.25 1.25 0 1 0 -2.5 0zM1643.75 615 a1.25 1.25 0 1 0 2.5 0 a1.25 1.25 0 1 0 -2.5 0zM1373.75 645 a1.25 1.25 0 1 0 2.5 0 a1.25 1.25 0 1 0 -2.5 0z" fill="black"></path><path d="M1833.75 455 a1.25 1.25 0 1 0 2.5 0 a1.25 1.25 0 1 0 -2.5 0zM1813.75 445 a1.25 1.25 0 1 0 2.5 0 a1.25 1.25 0 1 0 -2.5 0zM1883.75 455 a1.25 1.25 0 1 0 2.5 0 a1.25 1.25 0 1 0 -2.5 0z" fill="black"></path><path d="M1773.75 625 a1.25 1.25 0 1 0 2.5 0 a1.25 1.25 0 1 0 -2.5 0zM1903.75 625 a1.25 1.25 0 1 0 2.5 0 a1.25 1.25 0 1 0 -2.5 0zM1863.75 625 a1.25 1.25 0 1 0 2.5 0 a1.25 1.25 0 1 0 -2.5 0z" fill="black"></path><path d="M1093.75 405 a1.25 1.25 0 1 0 2.5 0 a1.25 1.25 0 1 0 -2.5 0zM1073.75 385 a1.25 1.25 0 1 0 2.5 0 a1.25 1.25 0 1 0 -2.5 0zM1513.75 405 a1.25 1.25 0 1 0 2.5 0 a1.25 1.25 0 1 0 -2.5 0zM1443.75 405 a1.25 1.25 0 1 0 2.5 0 a1.25 1.25 0 1 0 -2.5 0zM1133.75 385 a1.25 1.25 0 1 0 2.5 0 a1.25 1.25 0 1 0 -2.5 0zM1513.75 425 a1.25 1.25 0 1 0 2.5 0 a1.25 1.25 0 1 0 -2.5 0zM1463.75 405 a1.25 1.25 0 1 0 2.5 0 a1.25 1.25 0 1 0 -2.5 0zM1693.75 425 a1.25 1.25 0 1 0 2.5 0 a1.25 1.25 0 1 0 -2.5 0zM1153.75 365 a1.25 1.25 0 1 0 2.5 0 a1.25 1.25 0 1 0 -2.5 0zM1423.75 415 a1.25 1.25 0 1 0 2.5 0 a1.25 1.25 0 1 0 -2.5 0zM1743.75 445 a1.25 1.25 0 1 0 2.5 0 a1.25 1.25 0 1 0 -2.5 0zM1253.75 365 a1.25 1.25 0 1 0 2.5 0 a1.25 1.25 0 1 0 -2.5 0zM1203.75 395 a1.25 1.25 0 1 0 2.5 0 a1.25 1.25 0 1 0 -2.5 0zM1283.75 375 a1.25 1.25 0 1 0 2.5 0 a1.25 1.25 0 1 0 -2.5 0zM1753.75 445 a1.25 1.25 0 1 0 2.5 0 a1.25 1.25 0 1 0 -2.5 0zM1223.75 395 a1.25 1.25 0 1 0 2.5 0 a1.25 1.25 0 1 0 -2.5 0zM1363.75 405 a1.25 1.25 0 1 0 2.5 0 a1.25 1.25 0 1 0 -2.5 0zM1593.75 405 a1.25 1.25 0 1 0 2.5 0 a1.25 1.25 0 1 0 -2.5 0zM1393.75 385 a1.25 1.25 0 1 0 2.5 0 a1.25 1.25 0 1 0 -2.5 0zM1633.75 405 a1.25 1.25 0 1 0 2.5 0 a1.25 1.25 0 1 0 -2.5 0zM1483.75 405 a1.25 1.25 0 1 0 2.5 0 a1.25 1.25 0 1 0 -2.5 0zM1643.75 405 a1.25 1.25 0 1 0 2.5 0 a1.25 1.25 0 1 0 -2.5 0z" fill="black"></path><path d="M1673.75 635 a1.25 1.25 0 1 0 2.5 0 a1.25 1.25 0 1 0 -2.5 0zM1783.75 645 a1.25 1.25 0 1 0 2.5 0 a1.25 1.25 0 1 0 -2.5 0zM1813.75 645 a1.25 1.25 0 1 0 2.5 0 a1.25 1.25 0 1 0 -2.5 0zM1643.75 645 a1.25 1.25 0 1 0 2.5 0 a1.25 1.25 0 1 0 -2.5 0zM1663.75 655 a1.25 1.25 0 1 0 2.5 0 a1.25 1.25 0 1 0 -2.5 0zM1773.75 655 a1.25 1.25 0 1 0 2.5 0 a1.25 1.25 0 1 0 -2.5 0zM1693.75 655 a1.25 1.25 0 1 0 2.5 0 a1.25 1.25 0 1 0 -2.5 0z" fill="black"></path><path d="M1713.75 425 a1.25 1.25 0 1 0 2.5 0 a1.25 1.25 0 1 0 -2.5 0z" fill="black"></path><path d="M1243.75 655 a1.25 1.25 0 1 0 2.5 0 a1.25 1.25 0 1 0 -2.5 0zM1293.75 685 a1.25 1.25 0 1 0 2.5 0 a1.25 1.25 0 1 0 -2.5 0zM1333.75 695 a1.25 1.25 0 1 0 2.5 0 a1.25 1.25 0 1 0 -2.5 0zM1463.75 655 a1.25 1.25 0 1 0 2.5 0 a1.25 1.25 0 1 0 -2.5 0zM1823.75 645 a1.25 1.25 0 1 0 2.5 0 a1.25 1.25 0 1 0 -2.5 0zM1753.75 675 a1.25 1.25 0 1 0 2.5 0 a1.25 1.25 0 1 0 -2.5 0zM1633.75 685 a1.25 1.25 0 1 0 2.5 0 a1.25 1.25 0 1 0 -2.5 0zM1453.75 665 a1.25 1.25 0 1 0 2.5 0 a1.25 1.25 0 1 0 -2.5 0zM1363.75 665 a1.25 1.25 0 1 0 2.5 0 a1.25 1.25 0 1 0 -2.5 0zM1703.75 685 a1.25 1.25 0 1 0 2.5 0 a1.25 1.25 0 1 0 -2.5 0zM1593.75 675 a1.25 1.25 0 1 0 2.5 0 a1.25 1.25 0 1 0 -2.5 0zM1193.75 675 a1.25 1.25 0 1 0 2.5 0 a1.25 1.25 0 1 0 -2.5 0zM1393.75 655 a1.25 1.25 0 1 0 2.5 0 a1.25 1.25 0 1 0 -2.5 0zM1693.75 665 a1.25 1.25 0 1 0 2.5 0 a1.25 1.25 0 1 0 -2.5 0zM1833.75 645 a1.25 1.25 0 1 0 2.5 0 a1.25 1.25 0 1 0 -2.5 0zM1613.75 645 a1.25 1.25 0 1 0 2.5 0 a1.25 1.25 0 1 0 -2.5 0zM1223.75 685 a1.25 1.25 0 1 0 2.5 0 a1.25 1.25 0 1 0 -2.5 0zM1193.75 665 a1.25 1.25 0 1 0 2.5 0 a1.25 1.25 0 1 0 -2.5 0z" fill="black"></path><path d="M1423.75 395 a1.25 1.25 0 1 0 2.5 0 a1.25 1.25 0 1 0 -2.5 0zM1793.75 405 a1.25 1.25 0 1 0 2.5 0 a1.25 1.25 0 1 0 -2.5 0zM1523.75 405 a1.25 1.25 0 1 0 2.5 0 a1.25 1.25 0 1 0 -2.5 0zM1663.75 405 a1.25 1.25 0 1 0 2.5 0 a1.25 1.25 0 1 0 -2.5 0zM1403.75 385 a1.25 1.25 0 1 0 2.5 0 a1.25 1.25 0 1 0 -2.5 0zM1683.75 405 a1.25 1.25 0 1 0 2.5 0 a1.25 1.25 0 1 0 -2.5 0zM1683.75 415 a1.25 1.25 0 1 0 2.5 0 a1.25 1.25 0 1 0 -2.5 0zM1543.75 405 a1.25 1.25 0 1 0 2.5 0 a1.25 1.25 0 1 0 -2.5 0zM1873.75 405 a1.25 1.25 0 1 0 2.5 0 a1.25 1.25 0 1 0 -2.5 0zM1573.75 405 a1.25 1.25 0 1 0 2.5 0 a1.25 1.25 0 1 0 -2.5 0zM1803.75 405 a1.25 1.25 0 1 0 2.5 0 a1.25 1.25 0 1 0 -2.5 0zM1693.75 405 a1.25 1.25 0 1 0 2.5 0 a1.25 1.25 0 1 0 -2.5 0z" fill="black"></path><path d="M1863.75 675 a1.25 1.25 0 1 0 2.5 0 a1.25 1.25 0 1 0 -2.5 0z" fill="black"></path><path d="M1183.75 365 a1.25 1.25 0 1 0 2.5 0 a1.25 1.25 0 1 0 -2.5 0zM1363.75 365 a1.25 1.25 0 1 0 2.5 0 a1.25 1.25 0 1 0 -2.5 0zM1633.75 375 a1.25 1.25 0 1 0 2.5 0 a1.25 1.25 0 1 0 -2.5 0zM1053.75 355 a1.25 1.25 0 1 0 2.5 0 a1.25 1.25 0 1 0 -2.5 0zM1313.75 385 a1.25 1.25 0 1 0 2.5 0 a1.25 1.25 0 1 0 -2.5 0zM1223.75 335 a1.25 1.25 0 1 0 2.5 0 a1.25 1.25 0 1 0 -2.5 0zM1793.75 375 a1.25 1.25 0 1 0 2.5 0 a1.25 1.25 0 1 0 -2.5 0zM1643.75 365 a1.25 1.25 0 1 0 2.5 0 a1.25 1.25 0 1 0 -2.5 0zM1353.75 385 a1.25 1.25 0 1 0 2.5 0 a1.25 1.25 0 1 0 -2.5 0zM1433.75 385 a1.25 1.25 0 1 0 2.5 0 a1.25 1.25 0 1 0 -2.5 0zM1243.75 355 a1.25 1.25 0 1 0 2.5 0 a1.25 1.25 0 1 0 -2.5 0zM1813.75 405 a1.25 1.25 0 1 0 2.5 0 a1.25 1.25 0 1 0 -2.5 0zM1493.75 375 a1.25 1.25 0 1 0 2.5 0 a1.25 1.25 0 1 0 -2.5 0zM1253.75 355 a1.25 1.25 0 1 0 2.5 0 a1.25 1.25 0 1 0 -2.5 0zM1393.75 365 a1.25 1.25 0 1 0 2.5 0 a1.25 1.25 0 1 0 -2.5 0zM1263.75 355 a1.25 1.25 0 1 0 2.5 0 a1.25 1.25 0 1 0 -2.5 0zM1753.75 395 a1.25 1.25 0 1 0 2.5 0 a1.25 1.25 0 1 0 -2.5 0zM1453.75 375 a1.25 1.25 0 1 0 2.5 0 a1.25 1.25 0 1 0 -2.5 0zM1553.75 345 a1.25 1.25 0 1 0 2.5 0 a1.25 1.25 0 1 0 -2.5 0zM1273.75 365 a1.25 1.25 0 1 0 2.5 0 a1.25 1.25 0 1 0 -2.5 0z" fill="black"></path><path d="M1303.75 715 a1.25 1.25 0 1 0 2.5 0 a1.25 1.25 0 1 0 -2.5 0zM1783.75 685 a1.25 1.25 0 1 0 2.5 0 a1.25 1.25 0 1 0 -2.5 0zM1663.75 685 a1.25 1.25 0 1 0 2.5 0 a1.25 1.25 0 1 0 -2.5 0zM1803.75 685 a1.25 1.25 0 1 0 2.5 0 a1.25 1.25 0 1 0 -2.5 0zM1563.75 685 a1.25 1.25 0 1 0 2.5 0 a1.25 1.25 0 1 0 -2.5 0zM1543.75 705 a1.25 1.25 0 1 0 2.5 0 a1.25 1.25 0 1 0 -2.5 0zM1333.75 735 a1.25 1.25 0 1 0 2.5 0 a1.25 1.25 0 1 0 -2.5 0zM1323.75 705 a1.25 1.25 0 1 0 2.5 0 a1.25 1.25 0 1 0 -2.5 0zM1403.75 685 a1.25 1.25 0 1 0 2.5 0 a1.25 1.25 0 1 0 -2.5 0zM1343.75 715 a1.25 1.25 0 1 0 2.5 0 a1.25 1.25 0 1 0 -2.5 0zM1363.75 715 a1.25 1.25 0 1 0 2.5 0 a1.25 1.25 0 1 0 -2.5 0zM1243.75 715 a1.25 1.25 0 1 0 2.5 0 a1.25 1.25 0 1 0 -2.5 0zM1433.75 675 a1.25 1.25 0 1 0 2.5 0 a1.25 1.25 0 1 0 -2.5 0zM1843.75 675 a1.25 1.25 0 1 0 2.5 0 a1.25 1.25 0 1 0 -2.5 0zM1333.75 725 a1.25 1.25 0 1 0 2.5 0 a1.25 1.25 0 1 0 -2.5 0zM1603.75 685 a1.25 1.25 0 1 0 2.5 0 a1.25 1.25 0 1 0 -2.5 0zM1443.75 735 a1.25 1.25 0 1 0 2.5 0 a1.25 1.25 0 1 0 -2.5 0z" fill="black"></path><path d="M1923.75 425 a1.25 1.25 0 1 0 2.5 0 a1.25 1.25 0 1 0 -2.5 0z" fill="black"></path><path d="M1653.75 355 a1.25 1.25 0 1 0 2.5 0 a1.25 1.25 0 1 0 -2.5 0zM1693.75 365 a1.25 1.25 0 1 0 2.5 0 a1.25 1.25 0 1 0 -2.5 0zM1853.75 385 a1.25 1.25 0 1 0 2.5 0 a1.25 1.25 0 1 0 -2.5 0zM1703.75 375 a1.25 1.25 0 1 0 2.5 0 a1.25 1.25 0 1 0 -2.5 0zM1713.75 385 a1.25 1.25 0 1 0 2.5 0 a1.25 1.25 0 1 0 -2.5 0zM1823.75 385 a1.25 1.25 0 1 0 2.5 0 a1.25 1.25 0 1 0 -2.5 0zM1863.75 385 a1.25 1.25 0 1 0 2.5 0 a1.25 1.25 0 1 0 -2.5 0z" fill="black"></path><path d="M1923.75 675 a1.25 1.25 0 1 0 2.5 0 a1.25 1.25 0 1 0 -2.5 0z" fill="black"></path><path d="M1903.75 395 a1.25 1.25 0 1 0 2.5 0 a1.25 1.25 0 1 0 -2.5 0z" fill="black"></path><path d="M1223.75 765 a1.25 1.25 0 1 0 2.5 0 a1.25 1.25 0 1 0 -2.5 0zM1583.75 705 a1.25 1.25 0 1 0 2.5 0 a1.25 1.25 0 1 0 -2.5 0zM1123.75 755 a1.25 1.25 0 1 0 2.5 0 a1.25 1.25 0 1 0 -2.5 0zM1353.75 765 a1.25 1.25 0 1 0 2.5 0 a1.25 1.25 0 1 0 -2.5 0zM1693.75 715 a1.25 1.25 0 1 0 2.5 0 a1.25 1.25 0 1 0 -2.5 0zM1363.75 775 a1.25 1.25 0 1 0 2.5 0 a1.25 1.25 0 1 0 -2.5 0zM1243.75 775 a1.25 1.25 0 1 0 2.5 0 a1.25 1.25 0 1 0 -2.5 0zM1033.75 735 a1.25 1.25 0 1 0 2.5 0 a1.25 1.25 0 1 0 -2.5 0zM1463.75 755 a1.25 1.25 0 1 0 2.5 0 a1.25 1.25 0 1 0 -2.5 0zM1473.75 755 a1.25 1.25 0 1 0 2.5 0 a1.25 1.25 0 1 0 -2.5 0zM1293.75 785 a1.25 1.25 0 1 0 2.5 0 a1.25 1.25 0 1 0 -2.5 0zM1213.75 795 a1.25 1.25 0 1 0 2.5 0 a1.25 1.25 0 1 0 -2.5 0zM1633.75 705 a1.25 1.25 0 1 0 2.5 0 a1.25 1.25 0 1 0 -2.5 0zM1483.75 755 a1.25 1.25 0 1 0 2.5 0 a1.25 1.25 0 1 0 -2.5 0zM1413.75 745 a1.25 1.25 0 1 0 2.5 0 a1.25 1.25 0 1 0 -2.5 0zM1503.75 755 a1.25 1.25 0 1 0 2.5 0 a1.25 1.25 0 1 0 -2.5 0zM1393.75 755 a1.25 1.25 0 1 0 2.5 0 a1.25 1.25 0 1 0 -2.5 0zM1193.75 775 a1.25 1.25 0 1 0 2.5 0 a1.25 1.25 0 1 0 -2.5 0zM1593.75 725 a1.25 1.25 0 1 0 2.5 0 a1.25 1.25 0 1 0 -2.5 0z" fill="black"></path><path d="M1543.75 345 a1.25 1.25 0 1 0 2.5 0 a1.25 1.25 0 1 0 -2.5 0zM1573.75 345 a1.25 1.25 0 1 0 2.5 0 a1.25 1.25 0 1 0 -2.5 0zM1623.75 355 a1.25 1.25 0 1 0 2.5 0 a1.25 1.25 0 1 0 -2.5 0zM1893.75 385 a1.25 1.25 0 1 0 2.5 0 a1.25 1.25 0 1 0 -2.5 0zM1533.75 335 a1.25 1.25 0 1 0 2.5 0 a1.25 1.25 0 1 0 -2.5 0z" fill="black"></path><path d="M1723.75 715 a1.25 1.25 0 1 0 2.5 0 a1.25 1.25 0 1 0 -2.5 0z" fill="black"></path><path d="M1493.75 315 a1.25 1.25 0 1 0 2.5 0 a1.25 1.25 0 1 0 -2.5 0zM1623.75 325 a1.25 1.25 0 1 0 2.5 0 a1.25 1.25 0 1 0 -2.5 0zM1523.75 315 a1.25 1.25 0 1 0 2.5 0 a1.25 1.25 0 1 0 -2.5 0zM1543.75 315 a1.25 1.25 0 1 0 2.5 0 a1.25 1.25 0 1 0 -2.5 0zM1883.75 365 a1.25 1.25 0 1 0 2.5 0 a1.25 1.25 0 1 0 -2.5 0zM1453.75 325 a1.25 1.25 0 1 0 2.5 0 a1.25 1.25 0 1 0 -2.5 0zM1503.75 325 a1.25 1.25 0 1 0 2.5 0 a1.25 1.25 0 1 0 -2.5 0zM1713.75 335 a1.25 1.25 0 1 0 2.5 0 a1.25 1.25 0 1 0 -2.5 0zM1723.75 335 a1.25 1.25 0 1 0 2.5 0 a1.25 1.25 0 1 0 -2.5 0zM1513.75 325 a1.25 1.25 0 1 0 2.5 0 a1.25 1.25 0 1 0 -2.5 0zM1913.75 375 a1.25 1.25 0 1 0 2.5 0 a1.25 1.25 0 1 0 -2.5 0zM1733.75 335 a1.25 1.25 0 1 0 2.5 0 a1.25 1.25 0 1 0 -2.5 0z" fill="black"></path><path d="M1573.75 735 a1.25 1.25 0 1 0 2.5 0 a1.25 1.25 0 1 0 -2.5 0zM1663.75 735 a1.25 1.25 0 1 0 2.5 0 a1.25 1.25 0 1 0 -2.5 0zM1543.75 755 a1.25 1.25 0 1 0 2.5 0 a1.25 1.25 0 1 0 -2.5 0zM1623.75 735 a1.25 1.25 0 1 0 2.5 0 a1.25 1.25 0 1 0 -2.5 0zM1893.75 715 a1.25 1.25 0 1 0 2.5 0 a1.25 1.25 0 1 0 -2.5 0zM1703.75 745 a1.25 1.25 0 1 0 2.5 0 a1.25 1.25 0 1 0 -2.5 0zM1903.75 715 a1.25 1.25 0 1 0 2.5 0 a1.25 1.25 0 1 0 -2.5 0zM1603.75 725 a1.25 1.25 0 1 0 2.5 0 a1.25 1.25 0 1 0 -2.5 0zM1563.75 755 a1.25 1.25 0 1 0 2.5 0 a1.25 1.25 0 1 0 -2.5 0zM1773.75 745 a1.25 1.25 0 1 0 2.5 0 a1.25 1.25 0 1 0 -2.5 0z" fill="black"></path><path d="M1893.75 355 a1.25 1.25 0 1 0 2.5 0 a1.25 1.25 0 1 0 -2.5 0z" fill="black"></path><path d="M1803.75 735 a1.25 1.25 0 1 0 2.5 0 a1.25 1.25 0 1 0 -2.5 0zM1813.75 745 a1.25 1.25 0 1 0 2.5 0 a1.25 1.25 0 1 0 -2.5 0zM1883.75 735 a1.25 1.25 0 1 0 2.5 0 a1.25 1.25 0 1 0 -2.5 0zM1823.75 745 a1.25 1.25 0 1 0 2.5 0 a1.25 1.25 0 1 0 -2.5 0z" fill="black"></path><path d="M1053.75 275 a1.25 1.25 0 1 0 2.5 0 a1.25 1.25 0 1 0 -2.5 0zM1153.75 285 a1.25 1.25 0 1 0 2.5 0 a1.25 1.25 0 1 0 -2.5 0zM1013.75 315 a1.25 1.25 0 1 0 2.5 0 a1.25 1.25 0 1 0 -2.5 0zM1223.75 325 a1.25 1.25 0 1 0 2.5 0 a1.25 1.25 0 1 0 -2.5 0zM1523.75 305 a1.25 1.25 0 1 0 2.5 0 a1.25 1.25 0 1 0 -2.5 0zM1573.75 315 a1.25 1.25 0 1 0 2.5 0 a1.25 1.25 0 1 0 -2.5 0zM1683.75 315 a1.25 1.25 0 1 0 2.5 0 a1.25 1.25 0 1 0 -2.5 0zM1433.75 315 a1.25 1.25 0 1 0 2.5 0 a1.25 1.25 0 1 0 -2.5 0zM1043.75 305 a1.25 1.25 0 1 0 2.5 0 a1.25 1.25 0 1 0 -2.5 0zM1233.75 325 a1.25 1.25 0 1 0 2.5 0 a1.25 1.25 0 1 0 -2.5 0zM1363.75 285 a1.25 1.25 0 1 0 2.5 0 a1.25 1.25 0 1 0 -2.5 0zM1253.75 315 a1.25 1.25 0 1 0 2.5 0 a1.25 1.25 0 1 0 -2.5 0zM1063.75 285 a1.25 1.25 0 1 0 2.5 0 a1.25 1.25 0 1 0 -2.5 0zM1183.75 305 a1.25 1.25 0 1 0 2.5 0 a1.25 1.25 0 1 0 -2.5 0zM1273.75 275 a1.25 1.25 0 1 0 2.5 0 a1.25 1.25 0 1 0 -2.5 0zM1013.75 255 a1.25 1.25 0 1 0 2.5 0 a1.25 1.25 0 1 0 -2.5 0zM1173.75 275 a1.25 1.25 0 1 0 2.5 0 a1.25 1.25 0 1 0 -2.5 0zM1403.75 285 a1.25 1.25 0 1 0 2.5 0 a1.25 1.25 0 1 0 -2.5 0zM1743.75 335 a1.25 1.25 0 1 0 2.5 0 a1.25 1.25 0 1 0 -2.5 0zM983.75 325 a1.25 1.25 0 1 0 2.5 0 a1.25 1.25 0 1 0 -2.5 0zM1193.75 275 a1.25 1.25 0 1 0 2.5 0 a1.25 1.25 0 1 0 -2.5 0zM1373.75 315 a1.25 1.25 0 1 0 2.5 0 a1.25 1.25 0 1 0 -2.5 0zM1663.75 325 a1.25 1.25 0 1 0 2.5 0 a1.25 1.25 0 1 0 -2.5 0z" fill="black"></path><path d="M1453.75 765 a1.25 1.25 0 1 0 2.5 0 a1.25 1.25 0 1 0 -2.5 0zM1533.75 765 a1.25 1.25 0 1 0 2.5 0 a1.25 1.25 0 1 0 -2.5 0zM1753.75 755 a1.25 1.25 0 1 0 2.5 0 a1.25 1.25 0 1 0 -2.5 0zM1893.75 735 a1.25 1.25 0 1 0 2.5 0 a1.25 1.25 0 1 0 -2.5 0zM1513.75 765 a1.25 1.25 0 1 0 2.5 0 a1.25 1.25 0 1 0 -2.5 0zM1493.75 785 a1.25 1.25 0 1 0 2.5 0 a1.25 1.25 0 1 0 -2.5 0zM1613.75 755 a1.25 1.25 0 1 0 2.5 0 a1.25 1.25 0 1 0 -2.5 0zM1593.75 755 a1.25 1.25 0 1 0 2.5 0 a1.25 1.25 0 1 0 -2.5 0zM1783.75 745 a1.25 1.25 0 1 0 2.5 0 a1.25 1.25 0 1 0 -2.5 0zM1473.75 775 a1.25 1.25 0 1 0 2.5 0 a1.25 1.25 0 1 0 -2.5 0zM1443.75 775 a1.25 1.25 0 1 0 2.5 0 a1.25 1.25 0 1 0 -2.5 0zM1833.75 745 a1.25 1.25 0 1 0 2.5 0 a1.25 1.25 0 1 0 -2.5 0zM1603.75 765 a1.25 1.25 0 1 0 2.5 0 a1.25 1.25 0 1 0 -2.5 0z" fill="black"></path><path d="M1493.75 285 a1.25 1.25 0 1 0 2.5 0 a1.25 1.25 0 1 0 -2.5 0zM1693.75 315 a1.25 1.25 0 1 0 2.5 0 a1.25 1.25 0 1 0 -2.5 0z" fill="black"></path><path d="M1283.75 795 a1.25 1.25 0 1 0 2.5 0 a1.25 1.25 0 1 0 -2.5 0zM1673.75 795 a1.25 1.25 0 1 0 2.5 0 a1.25 1.25 0 1 0 -2.5 0zM1373.75 785 a1.25 1.25 0 1 0 2.5 0 a1.25 1.25 0 1 0 -2.5 0zM1693.75 795 a1.25 1.25 0 1 0 2.5 0 a1.25 1.25 0 1 0 -2.5 0zM1583.75 795 a1.25 1.25 0 1 0 2.5 0 a1.25 1.25 0 1 0 -2.5 0zM1553.75 775 a1.25 1.25 0 1 0 2.5 0 a1.25 1.25 0 1 0 -2.5 0zM1303.75 785 a1.25 1.25 0 1 0 2.5 0 a1.25 1.25 0 1 0 -2.5 0zM1623.75 795 a1.25 1.25 0 1 0 2.5 0 a1.25 1.25 0 1 0 -2.5 0zM1213.75 825 a1.25 1.25 0 1 0 2.5 0 a1.25 1.25 0 1 0 -2.5 0zM1403.75 785 a1.25 1.25 0 1 0 2.5 0 a1.25 1.25 0 1 0 -2.5 0zM1783.75 775 a1.25 1.25 0 1 0 2.5 0 a1.25 1.25 0 1 0 -2.5 0zM1443.75 785 a1.25 1.25 0 1 0 2.5 0 a1.25 1.25 0 1 0 -2.5 0zM1403.75 805 a1.25 1.25 0 1 0 2.5 0 a1.25 1.25 0 1 0 -2.5 0zM1423.75 805 a1.25 1.25 0 1 0 2.5 0 a1.25 1.25 0 1 0 -2.5 0zM1333.75 785 a1.25 1.25 0 1 0 2.5 0 a1.25 1.25 0 1 0 -2.5 0zM1703.75 795 a1.25 1.25 0 1 0 2.5 0 a1.25 1.25 0 1 0 -2.5 0zM1643.75 795 a1.25 1.25 0 1 0 2.5 0 a1.25 1.25 0 1 0 -2.5 0z" fill="black"></path><path d="M1183.75 245 a1.25 1.25 0 1 0 2.5 0 a1.25 1.25 0 1 0 -2.5 0zM1373.75 285 a1.25 1.25 0 1 0 2.5 0 a1.25 1.25 0 1 0 -2.5 0zM1563.75 275 a1.25 1.25 0 1 0 2.5 0 a1.25 1.25 0 1 0 -2.5 0zM1123.75 255 a1.25 1.25 0 1 0 2.5 0 a1.25 1.25 0 1 0 -2.5 0zM1353.75 275 a1.25 1.25 0 1 0 2.5 0 a1.25 1.25 0 1 0 -2.5 0zM1583.75 275 a1.25 1.25 0 1 0 2.5 0 a1.25 1.25 0 1 0 -2.5 0zM1453.75 275 a1.25 1.25 0 1 0 2.5 0 a1.25 1.25 0 1 0 -2.5 0zM1583.75 285 a1.25 1.25 0 1 0 2.5 0 a1.25 1.25 0 1 0 -2.5 0zM1313.75 245 a1.25 1.25 0 1 0 2.5 0 a1.25 1.25 0 1 0 -2.5 0zM1123.75 265 a1.25 1.25 0 1 0 2.5 0 a1.25 1.25 0 1 0 -2.5 0zM1603.75 275 a1.25 1.25 0 1 0 2.5 0 a1.25 1.25 0 1 0 -2.5 0zM1353.75 245 a1.25 1.25 0 1 0 2.5 0 a1.25 1.25 0 1 0 -2.5 0zM1323.75 275 a1.25 1.25 0 1 0 2.5 0 a1.25 1.25 0 1 0 -2.5 0zM1453.75 255 a1.25 1.25 0 1 0 2.5 0 a1.25 1.25 0 1 0 -2.5 0zM1473.75 285 a1.25 1.25 0 1 0 2.5 0 a1.25 1.25 0 1 0 -2.5 0zM1333.75 275 a1.25 1.25 0 1 0 2.5 0 a1.25 1.25 0 1 0 -2.5 0zM1483.75 255 a1.25 1.25 0 1 0 2.5 0 a1.25 1.25 0 1 0 -2.5 0zM1243.75 275 a1.25 1.25 0 1 0 2.5 0 a1.25 1.25 0 1 0 -2.5 0zM1393.75 245 a1.25 1.25 0 1 0 2.5 0 a1.25 1.25 0 1 0 -2.5 0zM1463.75 275 a1.25 1.25 0 1 0 2.5 0 a1.25 1.25 0 1 0 -2.5 0z" fill="black"></path><path d="M1773.75 775 a1.25 1.25 0 1 0 2.5 0 a1.25 1.25 0 1 0 -2.5 0zM1863.75 775 a1.25 1.25 0 1 0 2.5 0 a1.25 1.25 0 1 0 -2.5 0zM1803.75 775 a1.25 1.25 0 1 0 2.5 0 a1.25 1.25 0 1 0 -2.5 0zM1753.75 785 a1.25 1.25 0 1 0 2.5 0 a1.25 1.25 0 1 0 -2.5 0zM1833.75 785 a1.25 1.25 0 1 0 2.5 0 a1.25 1.25 0 1 0 -2.5 0z" fill="black"></path><path d="M1063.75 235 a1.25 1.25 0 1 0 2.5 0 a1.25 1.25 0 1 0 -2.5 0zM1623.75 275 a1.25 1.25 0 1 0 2.5 0 a1.25 1.25 0 1 0 -2.5 0zM1053.75 245 a1.25 1.25 0 1 0 2.5 0 a1.25 1.25 0 1 0 -2.5 0zM1183.75 225 a1.25 1.25 0 1 0 2.5 0 a1.25 1.25 0 1 0 -2.5 0zM1113.75 215 a1.25 1.25 0 1 0 2.5 0 a1.25 1.25 0 1 0 -2.5 0zM1473.75 235 a1.25 1.25 0 1 0 2.5 0 a1.25 1.25 0 1 0 -2.5 0zM1143.75 245 a1.25 1.25 0 1 0 2.5 0 a1.25 1.25 0 1 0 -2.5 0zM1453.75 245 a1.25 1.25 0 1 0 2.5 0 a1.25 1.25 0 1 0 -2.5 0zM1283.75 225 a1.25 1.25 0 1 0 2.5 0 a1.25 1.25 0 1 0 -2.5 0zM1413.75 245 a1.25 1.25 0 1 0 2.5 0 a1.25 1.25 0 1 0 -2.5 0zM1053.75 255 a1.25 1.25 0 1 0 2.5 0 a1.25 1.25 0 1 0 -2.5 0zM1423.75 245 a1.25 1.25 0 1 0 2.5 0 a1.25 1.25 0 1 0 -2.5 0zM1493.75 235 a1.25 1.25 0 1 0 2.5 0 a1.25 1.25 0 1 0 -2.5 0zM1303.75 215 a1.25 1.25 0 1 0 2.5 0 a1.25 1.25 0 1 0 -2.5 0zM993.75 225 a1.25 1.25 0 1 0 2.5 0 a1.25 1.25 0 1 0 -2.5 0zM1163.75 205 a1.25 1.25 0 1 0 2.5 0 a1.25 1.25 0 1 0 -2.5 0zM1503.75 225 a1.25 1.25 0 1 0 2.5 0 a1.25 1.25 0 1 0 -2.5 0zM1083.75 225 a1.25 1.25 0 1 0 2.5 0 a1.25 1.25 0 1 0 -2.5 0zM1133.75 225 a1.25 1.25 0 1 0 2.5 0 a1.25 1.25 0 1 0 -2.5 0zM1663.75 275 a1.25 1.25 0 1 0 2.5 0 a1.25 1.25 0 1 0 -2.5 0zM1163.75 195 a1.25 1.25 0 1 0 2.5 0 a1.25 1.25 0 1 0 -2.5 0zM1203.75 205 a1.25 1.25 0 1 0 2.5 0 a1.25 1.25 0 1 0 -2.5 0zM1323.75 205 a1.25 1.25 0 1 0 2.5 0 a1.25 1.25 0 1 0 -2.5 0z" fill="black"></path><path d="M1873.75 785 a1.25 1.25 0 1 0 2.5 0 a1.25 1.25 0 1 0 -2.5 0zM1883.75 775 a1.25 1.25 0 1 0 2.5 0 a1.25 1.25 0 1 0 -2.5 0zM1893.75 775 a1.25 1.25 0 1 0 2.5 0 a1.25 1.25 0 1 0 -2.5 0z" fill="black"></path><path d="M1573.75 255 a1.25 1.25 0 1 0 2.5 0 a1.25 1.25 0 1 0 -2.5 0zM1813.75 295 a1.25 1.25 0 1 0 2.5 0 a1.25 1.25 0 1 0 -2.5 0zM1553.75 255 a1.25 1.25 0 1 0 2.5 0 a1.25 1.25 0 1 0 -2.5 0zM1843.75 295 a1.25 1.25 0 1 0 2.5 0 a1.25 1.25 0 1 0 -2.5 0zM1603.75 245 a1.25 1.25 0 1 0 2.5 0 a1.25 1.25 0 1 0 -2.5 0z" fill="black"></path><path d="M1293.75 815 a1.25 1.25 0 1 0 2.5 0 a1.25 1.25 0 1 0 -2.5 0zM1273.75 825 a1.25 1.25 0 1 0 2.5 0 a1.25 1.25 0 1 0 -2.5 0zM1343.75 825 a1.25 1.25 0 1 0 2.5 0 a1.25 1.25 0 1 0 -2.5 0zM1433.75 805 a1.25 1.25 0 1 0 2.5 0 a1.25 1.25 0 1 0 -2.5 0zM1363.75 835 a1.25 1.25 0 1 0 2.5 0 a1.25 1.25 0 1 0 -2.5 0zM1543.75 815 a1.25 1.25 0 1 0 2.5 0 a1.25 1.25 0 1 0 -2.5 0zM1373.75 815 a1.25 1.25 0 1 0 2.5 0 a1.25 1.25 0 1 0 -2.5 0zM1613.75 815 a1.25 1.25 0 1 0 2.5 0 a1.25 1.25 0 1 0 -2.5 0zM1633.75 815 a1.25 1.25 0 1 0 2.5 0 a1.25 1.25 0 1 0 -2.5 0zM1553.75 815 a1.25 1.25 0 1 0 2.5 0 a1.25 1.25 0 1 0 -2.5 0zM1453.75 815 a1.25 1.25 0 1 0 2.5 0 a1.25 1.25 0 1 0 -2.5 0zM1833.75 805 a1.25 1.25 0 1 0 2.5 0 a1.25 1.25 0 1 0 -2.5 0zM1313.75 835 a1.25 1.25 0 1 0 2.5 0 a1.25 1.25 0 1 0 -2.5 0zM1383.75 815 a1.25 1.25 0 1 0 2.5 0 a1.25 1.25 0 1 0 -2.5 0zM1843.75 805 a1.25 1.25 0 1 0 2.5 0 a1.25 1.25 0 1 0 -2.5 0zM1563.75 805 a1.25 1.25 0 1 0 2.5 0 a1.25 1.25 0 1 0 -2.5 0zM1463.75 815 a1.25 1.25 0 1 0 2.5 0 a1.25 1.25 0 1 0 -2.5 0z" fill="black"></path><path d="M1633.75 245 a1.25 1.25 0 1 0 2.5 0 a1.25 1.25 0 1 0 -2.5 0zM1643.75 235 a1.25 1.25 0 1 0 2.5 0 a1.25 1.25 0 1 0 -2.5 0zM1653.75 235 a1.25 1.25 0 1 0 2.5 0 a1.25 1.25 0 1 0 -2.5 0z" fill="black"></path><path d="M1393.75 845 a1.25 1.25 0 1 0 2.5 0 a1.25 1.25 0 1 0 -2.5 0zM1523.75 835 a1.25 1.25 0 1 0 2.5 0 a1.25 1.25 0 1 0 -2.5 0zM1913.75 795 a1.25 1.25 0 1 0 2.5 0 a1.25 1.25 0 1 0 -2.5 0zM1253.75 855 a1.25 1.25 0 1 0 2.5 0 a1.25 1.25 0 1 0 -2.5 0zM1553.75 835 a1.25 1.25 0 1 0 2.5 0 a1.25 1.25 0 1 0 -2.5 0zM1623.75 835 a1.25 1.25 0 1 0 2.5 0 a1.25 1.25 0 1 0 -2.5 0zM1483.75 825 a1.25 1.25 0 1 0 2.5 0 a1.25 1.25 0 1 0 -2.5 0zM1503.75 855 a1.25 1.25 0 1 0 2.5 0 a1.25 1.25 0 1 0 -2.5 0zM1433.75 835 a1.25 1.25 0 1 0 2.5 0 a1.25 1.25 0 1 0 -2.5 0zM1463.75 855 a1.25 1.25 0 1 0 2.5 0 a1.25 1.25 0 1 0 -2.5 0zM1443.75 835 a1.25 1.25 0 1 0 2.5 0 a1.25 1.25 0 1 0 -2.5 0zM1463.75 835 a1.25 1.25 0 1 0 2.5 0 a1.25 1.25 0 1 0 -2.5 0zM1723.75 815 a1.25 1.25 0 1 0 2.5 0 a1.25 1.25 0 1 0 -2.5 0zM1403.75 865 a1.25 1.25 0 1 0 2.5 0 a1.25 1.25 0 1 0 -2.5 0z" fill="black"></path><path d="M1383.75 185 a1.25 1.25 0 1 0 2.5 0 a1.25 1.25 0 1 0 -2.5 0zM1603.75 235 a1.25 1.25 0 1 0 2.5 0 a1.25 1.25 0 1 0 -2.5 0zM1503.75 215 a1.25 1.25 0 1 0 2.5 0 a1.25 1.25 0 1 0 -2.5 0zM1433.75 195 a1.25 1.25 0 1 0 2.5 0 a1.25 1.25 0 1 0 -2.5 0zM1513.75 225 a1.25 1.25 0 1 0 2.5 0 a1.25 1.25 0 1 0 -2.5 0zM1613.75 245 a1.25 1.25 0 1 0 2.5 0 a1.25 1.25 0 1 0 -2.5 0zM1543.75 225 a1.25 1.25 0 1 0 2.5 0 a1.25 1.25 0 1 0 -2.5 0zM1283.75 195 a1.25 1.25 0 1 0 2.5 0 a1.25 1.25 0 1 0 -2.5 0zM1373.75 205 a1.25 1.25 0 1 0 2.5 0 a1.25 1.25 0 1 0 -2.5 0zM1553.75 185 a1.25 1.25 0 1 0 2.5 0 a1.25 1.25 0 1 0 -2.5 0zM1523.75 225 a1.25 1.25 0 1 0 2.5 0 a1.25 1.25 0 1 0 -2.5 0zM1383.75 215 a1.25 1.25 0 1 0 2.5 0 a1.25 1.25 0 1 0 -2.5 0zM1553.75 215 a1.25 1.25 0 1 0 2.5 0 a1.25 1.25 0 1 0 -2.5 0zM1413.75 165 a1.25 1.25 0 1 0 2.5 0 a1.25 1.25 0 1 0 -2.5 0zM1563.75 205 a1.25 1.25 0 1 0 2.5 0 a1.25 1.25 0 1 0 -2.5 0z" fill="black"></path><path d="M1663.75 845 a1.25 1.25 0 1 0 2.5 0 a1.25 1.25 0 1 0 -2.5 0zM1753.75 835 a1.25 1.25 0 1 0 2.5 0 a1.25 1.25 0 1 0 -2.5 0zM1663.75 855 a1.25 1.25 0 1 0 2.5 0 a1.25 1.25 0 1 0 -2.5 0zM1833.75 835 a1.25 1.25 0 1 0 2.5 0 a1.25 1.25 0 1 0 -2.5 0zM1853.75 845 a1.25 1.25 0 1 0 2.5 0 a1.25 1.25 0 1 0 -2.5 0zM1673.75 865 a1.25 1.25 0 1 0 2.5 0 a1.25 1.25 0 1 0 -2.5 0zM1713.75 835 a1.25 1.25 0 1 0 2.5 0 a1.25 1.25 0 1 0 -2.5 0zM1873.75 835 a1.25 1.25 0 1 0 2.5 0 a1.25 1.25 0 1 0 -2.5 0z" fill="black"></path><path d="M1913.75 285 a1.25 1.25 0 1 0 2.5 0 a1.25 1.25 0 1 0 -2.5 0z" fill="black"></path><path d="M1083.75 195 a1.25 1.25 0 1 0 2.5 0 a1.25 1.25 0 1 0 -2.5 0zM1223.75 165 a1.25 1.25 0 1 0 2.5 0 a1.25 1.25 0 1 0 -2.5 0zM1693.75 235 a1.25 1.25 0 1 0 2.5 0 a1.25 1.25 0 1 0 -2.5 0zM1073.75 185 a1.25 1.25 0 1 0 2.5 0 a1.25 1.25 0 1 0 -2.5 0zM1543.75 145 a1.25 1.25 0 1 0 2.5 0 a1.25 1.25 0 1 0 -2.5 0zM1503.75 185 a1.25 1.25 0 1 0 2.5 0 a1.25 1.25 0 1 0 -2.5 0zM1423.75 145 a1.25 1.25 0 1 0 2.5 0 a1.25 1.25 0 1 0 -2.5 0zM1433.75 165 a1.25 1.25 0 1 0 2.5 0 a1.25 1.25 0 1 0 -2.5 0zM1113.75 195 a1.25 1.25 0 1 0 2.5 0 a1.25 1.25 0 1 0 -2.5 0zM1773.75 255 a1.25 1.25 0 1 0 2.5 0 a1.25 1.25 0 1 0 -2.5 0zM1523.75 165 a1.25 1.25 0 1 0 2.5 0 a1.25 1.25 0 1 0 -2.5 0zM1543.75 165 a1.25 1.25 0 1 0 2.5 0 a1.25 1.25 0 1 0 -2.5 0zM1333.75 155 a1.25 1.25 0 1 0 2.5 0 a1.25 1.25 0 1 0 -2.5 0zM1433.75 145 a1.25 1.25 0 1 0 2.5 0 a1.25 1.25 0 1 0 -2.5 0zM1493.75 145 a1.25 1.25 0 1 0 2.5 0 a1.25 1.25 0 1 0 -2.5 0zM1113.75 175 a1.25 1.25 0 1 0 2.5 0 a1.25 1.25 0 1 0 -2.5 0zM1193.75 195 a1.25 1.25 0 1 0 2.5 0 a1.25 1.25 0 1 0 -2.5 0zM1753.75 265 a1.25 1.25 0 1 0 2.5 0 a1.25 1.25 0 1 0 -2.5 0zM1133.75 65 a1.25 1.25 0 1 0 2.5 0 a1.25 1.25 0 1 0 -2.5 0zM1463.75 135 a1.25 1.25 0 1 0 2.5 0 a1.25 1.25 0 1 0 -2.5 0zM1233.75 175 a1.25 1.25 0 1 0 2.5 0 a1.25 1.25 0 1 0 -2.5 0zM1063.75 175 a1.25 1.25 0 1 0 2.5 0 a1.25 1.25 0 1 0 -2.5 0z" fill="black"></path></mask></defs></svg>